<svg width="65" height="66" viewBox="0 0 65 66" fill="none" xmlns="http://www.w3.org/2000/svg">
<rect width="60" height="60" rx="10" fill="#C6F26A"/>
<rect x="5" y="6" width="60" height="60" rx="10" fill="#3BB738"/>
<path d="M42.2188 52.625C43.703 52.625 44.9062 51.4218 44.9062 49.9375C44.9062 48.4532 43.703 47.25 42.2188 47.25C40.7345 47.25 39.5312 48.4532 39.5312 49.9375C39.5312 51.4218 40.7345 52.625 42.2188 52.625Z" fill="#F8F8F8"/>
<path d="M42.2188 25.75C43.703 25.75 44.9062 24.5468 44.9062 23.0625C44.9062 21.5782 43.703 20.375 42.2188 20.375C40.7345 20.375 39.5312 21.5782 39.5312 23.0625C39.5312 24.5468 40.7345 25.75 42.2188 25.75Z" fill="#F8F8F8"/>
<path d="M19.375 39.1875C20.8593 39.1875 22.0625 37.9843 22.0625 36.5C22.0625 35.0157 20.8593 33.8125 19.375 33.8125C17.8907 33.8125 16.6875 35.0157 16.6875 36.5C16.6875 37.9843 17.8907 39.1875 19.375 39.1875Z" fill="#F8F8F8"/>
<path d="M51.625 31.125C50.4366 31.1285 49.283 31.5262 48.3448 32.2557C47.4067 32.9852 46.737 34.0054 46.4408 35.1563H40.6842C40.4939 34.3984 40.1393 33.6918 39.6455 33.0862C39.1517 32.4807 38.5308 31.9912 37.8267 31.6523C37.1227 31.3135 36.3528 31.1335 35.5715 31.1253C34.7902 31.1171 34.0167 31.2808 33.3057 31.6047L29.0366 26.27C29.7388 25.3478 30.1209 24.2216 30.125 23.0625C30.125 21.9994 29.8098 20.9602 29.2192 20.0763C28.6285 19.1924 27.7891 18.5035 26.8069 18.0966C25.8248 17.6898 24.744 17.5834 23.7014 17.7908C22.6587 17.9982 21.701 18.5101 20.9493 19.2618C20.1976 20.0135 19.6857 20.9712 19.4783 22.0139C19.2709 23.0565 19.3773 24.1373 19.7841 25.1194C20.191 26.1016 20.8799 26.941 21.7638 27.5317C22.6477 28.1223 23.6869 28.4375 24.75 28.4375C25.5077 28.4357 26.2563 28.2722 26.9457 27.9578L31.2134 33.2925C30.508 34.2129 30.1257 35.3403 30.1257 36.5C30.1257 37.6597 30.508 38.7871 31.2134 39.7075L26.9457 45.0422C26.2563 44.7278 25.5077 44.5643 24.75 44.5625C23.6869 44.5625 22.6477 44.8777 21.7638 45.4684C20.8799 46.059 20.191 46.8984 19.7841 47.8806C19.3773 48.8627 19.2709 49.9435 19.4783 50.9861C19.6857 52.0288 20.1976 52.9865 20.9493 53.7382C21.701 54.4899 22.6587 55.0018 23.7014 55.2092C24.744 55.4166 25.8248 55.3102 26.8069 54.9034C27.7891 54.4965 28.6285 53.8076 29.2192 52.9237C29.8098 52.0398 30.125 51.0006 30.125 49.9375C30.121 48.7783 29.7389 47.6521 29.0366 46.73L33.3043 41.3953C34.0154 41.7195 34.7891 41.8834 35.5705 41.8753C36.352 41.8671 37.1221 41.6873 37.8263 41.3484C38.5305 41.0095 39.1515 40.5199 39.6454 39.9142C40.1393 39.3086 40.4939 38.6017 40.6842 37.8438H46.4408C46.6939 38.8147 47.2141 39.6952 47.9424 40.3854C48.6707 41.0755 49.578 41.5476 50.5611 41.748C51.5443 41.9485 52.5639 41.8692 53.5043 41.5193C54.4447 41.1694 55.2681 40.5628 55.881 39.7684C56.494 38.974 56.8719 38.0236 56.9719 37.0253C57.0718 36.0269 56.8899 35.0205 56.4467 34.1203C56.0034 33.2202 55.3167 32.4623 54.4644 31.9329C53.6121 31.4034 52.6284 31.1235 51.625 31.125ZM22.0625 23.0625C22.0625 22.531 22.2201 22.0114 22.5154 21.5694C22.8107 21.1275 23.2305 20.783 23.7215 20.5796C24.2126 20.3762 24.753 20.3229 25.2743 20.4266C25.7956 20.5303 26.2745 20.7863 26.6504 21.1622C27.0262 21.538 27.2822 22.0169 27.3859 22.5382C27.4896 23.0595 27.4363 23.5999 27.2329 24.091C27.0295 24.582 26.6851 25.0018 26.2431 25.2971C25.8011 25.5924 25.2815 25.75 24.75 25.75C24.0375 25.7493 23.3543 25.4659 22.8504 24.9621C22.3466 24.4582 22.0632 23.7751 22.0625 23.0625ZM24.75 52.625C24.2185 52.625 23.6989 52.4674 23.2569 52.1721C22.815 51.8768 22.4705 51.457 22.2671 50.966C22.0637 50.4749 22.0104 49.9345 22.1141 49.4132C22.2178 48.8919 22.4738 48.413 22.8497 48.0372C23.2255 47.6613 23.7044 47.4053 24.2257 47.3016C24.747 47.1979 25.2874 47.2512 25.7785 47.4546C26.2695 47.658 26.6893 48.0024 26.9846 48.4444C27.2799 48.8864 27.4375 49.406 27.4375 49.9375C27.4368 50.6501 27.1534 51.3332 26.6496 51.8371C26.1457 52.3409 25.4626 52.6243 24.75 52.625ZM35.5 39.1875C34.9685 39.1875 34.4489 39.0299 34.0069 38.7346C33.565 38.4393 33.2205 38.0195 33.0171 37.5285C32.8137 37.0374 32.7604 36.497 32.8641 35.9757C32.9678 35.4544 33.2238 34.9755 33.5997 34.5997C33.9755 34.2238 34.4544 33.9678 34.9757 33.8641C35.497 33.7604 36.0374 33.8137 36.5285 34.0171C37.0195 34.2205 37.4393 34.565 37.7346 35.0069C38.0299 35.4489 38.1875 35.9685 38.1875 36.5C38.1868 37.2126 37.9034 37.8957 37.3996 38.3996C36.8957 38.9034 36.2126 39.1868 35.5 39.1875ZM51.625 39.1875C51.0935 39.1875 50.5739 39.0299 50.1319 38.7346C49.6899 38.4393 49.3455 38.0195 49.1421 37.5285C48.9387 37.0374 48.8854 36.497 48.9891 35.9757C49.0928 35.4544 49.3488 34.9755 49.7247 34.5997C50.1005 34.2238 50.5794 33.9678 51.1007 33.8641C51.622 33.7604 52.1624 33.8137 52.6535 34.0171C53.1445 34.2205 53.5643 34.565 53.8596 35.0069C54.1549 35.4489 54.3125 35.9685 54.3125 36.5C54.3118 37.2126 54.0284 37.8957 53.5246 38.3996C53.0207 38.9034 52.3376 39.1868 51.625 39.1875Z" fill="#F8F8F8"/>
</svg>
