<svg width="204" height="66" viewBox="0 0 204 66" fill="none" xmlns="http://www.w3.org/2000/svg">
<rect width="60" height="60" rx="10" fill="#C6F26A"/>
<rect x="5" y="6" width="60" height="60" rx="10" fill="#3BB738"/>
<path d="M42.2188 52.625C43.703 52.625 44.9062 51.4218 44.9062 49.9375C44.9062 48.4532 43.703 47.25 42.2188 47.25C40.7345 47.25 39.5312 48.4532 39.5312 49.9375C39.5312 51.4218 40.7345 52.625 42.2188 52.625Z" fill="#F8F8F8"/>
<path d="M42.2188 25.75C43.703 25.75 44.9062 24.5468 44.9062 23.0625C44.9062 21.5782 43.703 20.375 42.2188 20.375C40.7345 20.375 39.5312 21.5782 39.5312 23.0625C39.5312 24.5468 40.7345 25.75 42.2188 25.75Z" fill="#F8F8F8"/>
<path d="M19.375 39.1875C20.8593 39.1875 22.0625 37.9843 22.0625 36.5C22.0625 35.0157 20.8593 33.8125 19.375 33.8125C17.8907 33.8125 16.6875 35.0157 16.6875 36.5C16.6875 37.9843 17.8907 39.1875 19.375 39.1875Z" fill="#F8F8F8"/>
<path d="M51.625 31.125C50.4366 31.1285 49.283 31.5262 48.3448 32.2557C47.4067 32.9852 46.737 34.0054 46.4408 35.1563H40.6842C40.4939 34.3984 40.1393 33.6918 39.6455 33.0862C39.1517 32.4807 38.5308 31.9912 37.8267 31.6523C37.1227 31.3135 36.3528 31.1335 35.5715 31.1253C34.7902 31.1171 34.0167 31.2808 33.3057 31.6047L29.0366 26.27C29.7388 25.3478 30.1209 24.2216 30.125 23.0625C30.125 21.9994 29.8098 20.9602 29.2192 20.0763C28.6285 19.1924 27.7891 18.5035 26.8069 18.0966C25.8248 17.6898 24.744 17.5834 23.7014 17.7908C22.6587 17.9982 21.701 18.5101 20.9493 19.2618C20.1976 20.0135 19.6857 20.9712 19.4783 22.0139C19.2709 23.0565 19.3773 24.1373 19.7841 25.1194C20.191 26.1016 20.8799 26.941 21.7638 27.5317C22.6477 28.1223 23.6869 28.4375 24.75 28.4375C25.5077 28.4357 26.2563 28.2722 26.9457 27.9578L31.2134 33.2925C30.508 34.2129 30.1257 35.3403 30.1257 36.5C30.1257 37.6597 30.508 38.7871 31.2134 39.7075L26.9457 45.0422C26.2563 44.7278 25.5077 44.5643 24.75 44.5625C23.6869 44.5625 22.6477 44.8777 21.7638 45.4684C20.8799 46.059 20.191 46.8984 19.7841 47.8806C19.3773 48.8627 19.2709 49.9435 19.4783 50.9861C19.6857 52.0288 20.1976 52.9865 20.9493 53.7382C21.701 54.4899 22.6587 55.0018 23.7014 55.2092C24.744 55.4166 25.8248 55.3102 26.8069 54.9034C27.7891 54.4965 28.6285 53.8076 29.2192 52.9237C29.8098 52.0398 30.125 51.0006 30.125 49.9375C30.121 48.7783 29.7389 47.6521 29.0366 46.73L33.3043 41.3953C34.0154 41.7195 34.7891 41.8834 35.5705 41.8753C36.352 41.8671 37.1221 41.6873 37.8263 41.3484C38.5305 41.0095 39.1515 40.5199 39.6454 39.9142C40.1393 39.3086 40.4939 38.6017 40.6842 37.8438H46.4408C46.6939 38.8147 47.2141 39.6952 47.9424 40.3854C48.6707 41.0755 49.578 41.5476 50.5611 41.748C51.5443 41.9485 52.5639 41.8692 53.5043 41.5193C54.4447 41.1694 55.2681 40.5628 55.881 39.7684C56.494 38.974 56.8719 38.0236 56.9719 37.0253C57.0718 36.0269 56.8899 35.0205 56.4467 34.1203C56.0034 33.2202 55.3167 32.4623 54.4644 31.9329C53.6121 31.4034 52.6284 31.1235 51.625 31.125ZM22.0625 23.0625C22.0625 22.531 22.2201 22.0114 22.5154 21.5694C22.8107 21.1275 23.2305 20.783 23.7215 20.5796C24.2126 20.3762 24.753 20.3229 25.2743 20.4266C25.7956 20.5303 26.2745 20.7863 26.6504 21.1622C27.0262 21.538 27.2822 22.0169 27.3859 22.5382C27.4896 23.0595 27.4363 23.5999 27.2329 24.091C27.0295 24.582 26.6851 25.0018 26.2431 25.2971C25.8011 25.5924 25.2815 25.75 24.75 25.75C24.0375 25.7493 23.3543 25.4659 22.8504 24.9621C22.3466 24.4582 22.0632 23.7751 22.0625 23.0625ZM24.75 52.625C24.2185 52.625 23.6989 52.4674 23.2569 52.1721C22.815 51.8768 22.4705 51.457 22.2671 50.966C22.0637 50.4749 22.0104 49.9345 22.1141 49.4132C22.2178 48.8919 22.4738 48.413 22.8497 48.0372C23.2255 47.6613 23.7044 47.4053 24.2257 47.3016C24.747 47.1979 25.2874 47.2512 25.7785 47.4546C26.2695 47.658 26.6893 48.0024 26.9846 48.4444C27.2799 48.8864 27.4375 49.406 27.4375 49.9375C27.4368 50.6501 27.1534 51.3332 26.6496 51.8371C26.1457 52.3409 25.4626 52.6243 24.75 52.625ZM35.5 39.1875C34.9685 39.1875 34.4489 39.0299 34.0069 38.7346C33.565 38.4393 33.2205 38.0195 33.0171 37.5285C32.8137 37.0374 32.7604 36.497 32.8641 35.9757C32.9678 35.4544 33.2238 34.9755 33.5997 34.5997C33.9755 34.2238 34.4544 33.9678 34.9757 33.8641C35.497 33.7604 36.0374 33.8137 36.5285 34.0171C37.0195 34.2205 37.4393 34.565 37.7346 35.0069C38.0299 35.4489 38.1875 35.9685 38.1875 36.5C38.1868 37.2126 37.9034 37.8957 37.3996 38.3996C36.8957 38.9034 36.2126 39.1868 35.5 39.1875ZM51.625 39.1875C51.0935 39.1875 50.5739 39.0299 50.1319 38.7346C49.6899 38.4393 49.3455 38.0195 49.1421 37.5285C48.9387 37.0374 48.8854 36.497 48.9891 35.9757C49.0928 35.4544 49.3488 34.9755 49.7247 34.5997C50.1005 34.2238 50.5794 33.9678 51.1007 33.8641C51.622 33.7604 52.1624 33.8137 52.6535 34.0171C53.1445 34.2205 53.5643 34.565 53.8596 35.0069C54.1549 35.4489 54.3125 35.9685 54.3125 36.5C54.3118 37.2126 54.0284 37.8957 53.5246 38.3996C53.0207 38.9034 52.3376 39.1868 51.625 39.1875Z" fill="#F8F8F8"/>
<path d="M82.5 39H80.25V21H84.1992L100.699 36.75V21H102.949V39H99.9492L82.5 22.875V39ZM126.199 26.625C126.199 25.6875 126.098 24.9453 125.895 24.3984C125.691 23.8516 125.355 23.4375 124.887 23.1562C124.418 22.875 123.801 22.6953 123.035 22.6172C122.277 22.5391 121.336 22.5 120.211 22.5H114.949C113.949 22.5 113.105 22.5312 112.418 22.5938C111.738 22.6484 111.176 22.7656 110.73 22.9453C110.285 23.125 109.941 23.3828 109.699 23.7188C109.457 24.0547 109.281 24.5 109.172 25.0547C109.062 25.6094 109 26.293 108.984 27.1055C108.969 27.9102 108.961 28.875 108.961 30C108.961 31.125 108.969 32.0938 108.984 32.9062C109.008 33.7109 109.074 34.3906 109.184 34.9453C109.293 35.5 109.465 35.9453 109.699 36.2812C109.941 36.6172 110.285 36.875 110.73 37.0547C111.176 37.2344 111.738 37.3555 112.418 37.418C113.105 37.4727 113.949 37.5 114.949 37.5H120.211C121.086 37.5 121.84 37.4766 122.473 37.4297C123.105 37.3828 123.645 37.2969 124.09 37.1719C124.535 37.0469 124.895 36.875 125.168 36.6562C125.441 36.4375 125.652 36.1641 125.801 35.8359C125.957 35.5 126.062 35.1016 126.117 34.6406C126.172 34.1719 126.199 33.625 126.199 33H128.449C128.449 33.75 128.402 34.4297 128.309 35.0391C128.215 35.6406 128.047 36.1797 127.805 36.6562C127.57 37.125 127.254 37.5312 126.855 37.875C126.457 38.2188 125.953 38.5039 125.344 38.7305C124.734 38.9492 124.008 39.1094 123.164 39.2109C122.32 39.3203 121.336 39.375 120.211 39.375H114.949C113.574 39.375 112.414 39.2891 111.469 39.1172C110.531 38.9531 109.758 38.7031 109.148 38.3672C108.539 38.0234 108.066 37.5938 107.73 37.0781C107.402 36.5625 107.16 35.957 107.004 35.2617C106.855 34.5664 106.77 33.7812 106.746 32.9062C106.723 32.0312 106.711 31.0625 106.711 30C106.711 28.9375 106.723 27.9688 106.746 27.0938C106.77 26.2188 106.855 25.4336 107.004 24.7383C107.16 24.043 107.402 23.4375 107.73 22.9219C108.066 22.4062 108.539 21.9805 109.148 21.6445C109.758 21.3008 110.531 21.0469 111.469 20.8828C112.414 20.7109 113.574 20.625 114.949 20.625H120.211C121.336 20.625 122.32 20.6797 123.164 20.7891C124.008 20.8906 124.734 21.0508 125.344 21.2695C125.953 21.4805 126.457 21.75 126.855 22.0781C127.254 22.4062 127.57 22.793 127.805 23.2383C128.047 23.6836 128.215 24.1875 128.309 24.75C128.402 25.3125 128.449 25.9375 128.449 26.625H126.199ZM151.711 21V22.875H142.711V39H140.461V22.875H131.461V21H151.711ZM156.586 39.2578C155.086 39.2578 153.812 39.1562 152.766 38.9531C151.719 38.7422 150.867 38.3828 150.211 37.875C149.555 37.3672 149.078 36.6875 148.781 35.8359C148.484 34.9844 148.336 33.9141 148.336 32.625C148.336 31.1484 148.484 29.9297 148.781 28.9688C149.078 28 149.555 27.2305 150.211 26.6602C150.867 26.0898 151.719 25.6914 152.766 25.4648C153.812 25.2383 155.086 25.125 156.586 25.125C157.656 25.125 158.582 25.2031 159.363 25.3594C160.152 25.5156 160.824 25.7422 161.379 26.0391C161.941 26.3359 162.395 26.6953 162.738 27.1172C163.09 27.5391 163.363 27.9844 163.559 28.4531C163.762 28.9141 163.898 29.457 163.969 30.082C164.047 30.707 164.086 31.3672 164.086 32.0625L163.898 32.8125H150.586C150.586 33.8438 150.688 34.6914 150.891 35.3555C151.094 36.0117 151.43 36.4922 151.898 36.7969C152.367 37.1016 152.984 37.2969 153.75 37.3828C154.516 37.4609 155.461 37.5 156.586 37.5C157.617 37.5 158.469 37.4727 159.141 37.418C159.82 37.3555 160.359 37.2422 160.758 37.0781C161.156 36.9141 161.434 36.6875 161.59 36.3984C161.754 36.1016 161.836 35.7188 161.836 35.25H164.086C164.086 35.9766 163.957 36.5977 163.699 37.1133C163.449 37.6211 163.031 38.0352 162.445 38.3555C161.859 38.668 161.086 38.8945 160.125 39.0352C159.172 39.1836 157.992 39.2578 156.586 39.2578ZM156.586 27C155.836 27 155.164 27.0156 154.57 27.0469C153.984 27.0781 153.469 27.1484 153.023 27.2578C152.586 27.3594 152.211 27.5117 151.898 27.7148C151.586 27.9102 151.332 28.1445 151.137 28.418C150.949 28.6836 150.809 29.0625 150.715 29.5547C150.629 30.0391 150.586 30.625 150.586 31.3125H161.836C161.836 30.3984 161.738 29.6836 161.543 29.168C161.348 28.6445 161.039 28.2148 160.617 27.8789C160.195 27.543 159.652 27.3125 158.988 27.1875C158.324 27.0625 157.523 27 156.586 27ZM166.711 32.2734C166.711 31.3359 166.758 30.5078 166.852 29.7891C166.945 29.0703 167.109 28.4453 167.344 27.9141C167.586 27.3828 167.906 26.9414 168.305 26.5898C168.711 26.2305 169.219 25.9414 169.828 25.7227C170.445 25.5039 171.176 25.3477 172.02 25.2539C172.863 25.1602 173.848 25.1133 174.973 25.1133C176.473 25.1133 177.707 25.207 178.676 25.3945C179.645 25.5742 180.41 25.8555 180.973 26.2383C181.535 26.6133 181.926 27.0938 182.145 27.6797C182.363 28.2578 182.473 28.9492 182.473 29.7539H180.223C180.223 29.4648 180.215 29.1953 180.199 28.9453C180.184 28.6953 180.125 28.4688 180.023 28.2656C179.93 28.0625 179.777 27.8828 179.566 27.7266C179.355 27.5625 179.055 27.4258 178.664 27.3164C178.273 27.207 177.777 27.125 177.176 27.0703C176.582 27.0156 175.848 26.9883 174.973 26.9883C173.973 26.9883 173.129 27.0234 172.441 27.0938C171.762 27.1641 171.199 27.2812 170.754 27.4453C170.309 27.6016 169.965 27.8164 169.723 28.0898C169.48 28.3555 169.305 28.6836 169.195 29.0742C169.086 29.4648 169.02 29.9258 168.996 30.457C168.98 30.9805 168.973 31.5859 168.973 32.2734C168.973 32.9453 168.98 33.543 168.996 34.0664C169.02 34.582 169.086 35.0352 169.195 35.4258C169.305 35.8086 169.48 36.1328 169.723 36.3984C169.965 36.6641 170.309 36.8789 170.754 37.043C171.199 37.207 171.762 37.3242 172.441 37.3945C173.129 37.4648 173.973 37.5 174.973 37.5C175.848 37.5 176.582 37.4688 177.176 37.4062C177.777 37.3438 178.273 37.2539 178.664 37.1367C179.055 37.0195 179.355 36.875 179.566 36.7031C179.777 36.5312 179.93 36.3359 180.023 36.1172C180.125 35.8906 180.184 35.6445 180.199 35.3789C180.215 35.1055 180.223 34.8125 180.223 34.5H182.473C182.473 35.3203 182.363 36.0312 182.145 36.6328C181.926 37.2344 181.535 37.7305 180.973 38.1211C180.41 38.5039 179.645 38.7891 178.676 38.9766C177.707 39.1641 176.473 39.2578 174.973 39.2578C173.848 39.2578 172.863 39.2109 172.02 39.1172C171.176 39.0234 170.445 38.8711 169.828 38.6602C169.219 38.4414 168.711 38.1562 168.305 37.8047C167.906 37.4531 167.586 37.0195 167.344 36.5039C167.109 35.9883 166.945 35.3828 166.852 34.6875C166.758 33.9844 166.711 33.1797 166.711 32.2734ZM198.984 39V31.3828C198.984 30.5703 198.922 29.8867 198.797 29.332C198.672 28.7695 198.422 28.3164 198.047 27.9727C197.672 27.6289 197.141 27.3828 196.453 27.2344C195.766 27.0781 194.859 27 193.734 27C192.516 27 191.516 27.0898 190.734 27.2695C189.961 27.4414 189.352 27.6875 188.906 28.0078C188.461 28.3203 188.152 28.6992 187.98 29.1445C187.816 29.5898 187.734 30.0859 187.734 30.6328V39H185.484V21H187.734V27.6328C187.891 27.2656 188.113 26.9492 188.402 26.6836C188.691 26.418 189.023 26.1914 189.398 26.0039C189.781 25.8164 190.191 25.668 190.629 25.5586C191.066 25.4414 191.508 25.3516 191.953 25.2891C192.406 25.2266 192.848 25.1836 193.277 25.1602C193.715 25.1367 194.117 25.125 194.484 25.125C195.484 25.125 196.344 25.1875 197.062 25.3125C197.789 25.4297 198.402 25.6094 198.902 25.8516C199.41 26.0859 199.816 26.3789 200.121 26.7305C200.426 27.082 200.66 27.4922 200.824 27.9609C200.996 28.4219 201.109 28.9414 201.164 29.5195C201.219 30.0898 201.246 30.7109 201.246 31.3828L201.234 39H198.984Z" fill="black"/>
<path d="M79.875 53H78.9375V45.5H80.583L87.458 52.0625V45.5H88.3955V53H87.1455L79.875 46.2812V53ZM90.9053 47.375V50.5C90.9053 50.8483 90.9313 51.1429 90.9834 51.3838C91.0355 51.6214 91.1396 51.8135 91.2959 51.96C91.4521 52.1064 91.6735 52.2122 91.96 52.2773C92.2464 52.3424 92.624 52.375 93.0928 52.375C93.6006 52.375 94.0156 52.3376 94.3379 52.2627C94.6634 52.1878 94.9189 52.082 95.1045 51.9453C95.29 51.8086 95.417 51.6442 95.4854 51.4521C95.557 51.2601 95.5928 51.0469 95.5928 50.8125V47.375H96.5303V53H95.5928V52.0625C95.5472 52.1634 95.4707 52.2757 95.3633 52.3994C95.2559 52.5199 95.0947 52.6322 94.8799 52.7363C94.665 52.8405 94.3867 52.9284 94.0449 53C93.7064 53.0716 93.2848 53.1074 92.7803 53.1074C92.3604 53.1074 91.999 53.0814 91.6963 53.0293C91.3968 52.9805 91.1413 52.9072 90.9297 52.8096C90.7214 52.7087 90.5537 52.585 90.4268 52.4385C90.2998 52.292 90.2021 52.1227 90.1338 51.9307C90.0654 51.7354 90.0199 51.5189 89.9971 51.2812C89.9743 51.0436 89.9629 50.7832 89.9629 50.5L89.9678 47.375H90.9053ZM101.066 50.4365C100.624 50.4365 100.235 50.43 99.8994 50.417C99.5641 50.404 99.2744 50.3779 99.0303 50.3389C98.7894 50.2965 98.5876 50.238 98.4248 50.1631C98.2653 50.0882 98.1383 49.9889 98.0439 49.8652C97.9495 49.7383 97.8828 49.5837 97.8438 49.4014C97.8047 49.2158 97.7852 49.0156 97.7852 48.8008C97.7852 48.5078 97.847 48.262 97.9707 48.0635C98.0944 47.8617 98.293 47.6989 98.5664 47.5752C98.8398 47.4482 99.1947 47.3571 99.6309 47.3018C100.067 47.2464 100.598 47.2188 101.223 47.2188C101.841 47.2188 102.351 47.2513 102.751 47.3164C103.155 47.3815 103.474 47.4824 103.708 47.6191C103.946 47.7526 104.112 47.9219 104.206 48.127C104.3 48.332 104.348 48.5762 104.348 48.8594H103.41C103.41 48.6836 103.376 48.5404 103.308 48.4297C103.243 48.319 103.127 48.2327 102.961 48.1709C102.795 48.1058 102.57 48.0618 102.287 48.0391C102.007 48.013 101.652 48 101.223 48C100.754 48 100.36 48.0065 100.041 48.0195C99.722 48.0326 99.4648 48.0651 99.2695 48.1172C99.0742 48.1693 98.9342 48.249 98.8496 48.3564C98.765 48.4639 98.7227 48.612 98.7227 48.8008C98.7227 48.9115 98.7292 49.0205 98.7422 49.1279C98.7585 49.2321 98.7926 49.3184 98.8447 49.3867C98.8968 49.4551 98.9733 49.5072 99.0742 49.543C99.1751 49.5788 99.3118 49.6064 99.4844 49.626C99.6602 49.6423 99.8766 49.652 100.134 49.6553C100.391 49.6553 100.702 49.6553 101.066 49.6553C101.509 49.6553 101.896 49.665 102.229 49.6846C102.564 49.7041 102.854 49.7383 103.098 49.7871C103.342 49.8359 103.544 49.9108 103.703 50.0117C103.863 50.1126 103.99 50.2233 104.084 50.3438C104.182 50.4609 104.25 50.6009 104.289 50.7637C104.328 50.9232 104.348 51.1087 104.348 51.3203C104.348 51.5319 104.328 51.7223 104.289 51.8916C104.25 52.0576 104.182 52.2057 104.084 52.3359C103.986 52.4629 103.853 52.5736 103.684 52.668C103.518 52.7591 103.308 52.834 103.054 52.8926C102.8 52.9479 102.495 52.9886 102.141 53.0146C101.789 53.0439 101.379 53.0586 100.91 53.0586C100.324 53.0586 99.8311 53.0293 99.4307 52.9707C99.0335 52.9121 98.7129 52.8193 98.4688 52.6924C98.2246 52.5622 98.0488 52.3945 97.9414 52.1895C97.8372 51.9844 97.7852 51.7337 97.7852 51.4375H98.7227C98.7227 51.6328 98.7552 51.7923 98.8203 51.916C98.8887 52.0365 99.0059 52.1309 99.1719 52.1992C99.3379 52.2676 99.5609 52.3148 99.8408 52.3408C100.124 52.3636 100.48 52.375 100.91 52.375C101.301 52.375 101.633 52.3669 101.906 52.3506C102.183 52.3311 102.414 52.3018 102.6 52.2627C102.785 52.2236 102.932 52.1764 103.039 52.1211C103.146 52.0658 103.228 51.999 103.283 51.9209C103.339 51.8428 103.373 51.7565 103.386 51.6621C103.402 51.5645 103.41 51.457 103.41 51.3398C103.41 51.2324 103.402 51.138 103.386 51.0566C103.373 50.972 103.34 50.889 103.288 50.8076C103.236 50.723 103.16 50.6595 103.059 50.6172C102.958 50.5749 102.819 50.5407 102.644 50.5146C102.471 50.4854 102.256 50.4658 101.999 50.4561C101.742 50.443 101.431 50.4365 101.066 50.4365ZM111.198 52.2285C111.188 52.2676 111.115 52.3652 110.979 52.5215C110.881 52.6387 110.751 52.7428 110.588 52.834C110.425 52.9219 110.207 52.9902 109.934 53.0391C109.663 53.0911 109.307 53.1172 108.864 53.1172C108.275 53.1172 107.772 53.0863 107.355 53.0244C106.939 52.9658 106.599 52.8747 106.335 52.751C106.071 52.624 105.878 52.4629 105.754 52.2676C105.633 52.0723 105.573 51.8395 105.573 51.5693C105.573 51.2861 105.606 51.0469 105.671 50.8516C105.739 50.653 105.837 50.487 105.964 50.3535C106.094 50.2201 106.25 50.1159 106.433 50.041C106.615 49.9661 106.822 49.9092 107.053 49.8701C107.287 49.8311 107.543 49.8066 107.819 49.7969C108.096 49.7871 108.391 49.7822 108.703 49.7822C109.149 49.7822 109.522 49.8018 109.821 49.8408C110.121 49.8766 110.365 49.9238 110.554 49.9824C110.746 50.0378 110.891 50.098 110.988 50.1631C111.086 50.2282 111.156 50.2884 111.198 50.3438C111.198 49.9792 111.182 49.6683 111.149 49.4111C111.12 49.154 111.07 48.9391 110.998 48.7666C110.93 48.5941 110.84 48.4574 110.729 48.3564C110.619 48.2523 110.482 48.1742 110.319 48.1221C110.16 48.07 109.973 48.0374 109.758 48.0244C109.543 48.0081 109.297 48 109.021 48C108.591 48 108.234 48.0114 107.951 48.0342C107.668 48.0537 107.443 48.0944 107.277 48.1562C107.111 48.2181 106.994 48.3044 106.926 48.415C106.857 48.5225 106.823 48.6641 106.823 48.8398H105.886C105.886 48.5436 105.938 48.293 106.042 48.0879C106.149 47.8828 106.325 47.7168 106.569 47.5898C106.817 47.4596 107.141 47.3652 107.541 47.3066C107.941 47.248 108.435 47.2188 109.021 47.2188C109.593 47.2188 110.078 47.266 110.476 47.3604C110.873 47.4548 111.193 47.6208 111.438 47.8584C111.685 48.096 111.862 48.4167 111.97 48.8203C112.08 49.2207 112.136 49.7285 112.136 50.3438V53H111.198V52.2285ZM109.021 52.375C109.434 52.375 109.779 52.3555 110.056 52.3164C110.336 52.2773 110.56 52.2188 110.729 52.1406C110.899 52.0625 111.019 51.9648 111.091 51.8477C111.162 51.7305 111.198 51.5938 111.198 51.4375C111.198 51.2812 111.156 51.1494 111.071 51.042C110.99 50.9313 110.852 50.8418 110.656 50.7734C110.464 50.7051 110.209 50.6562 109.89 50.627C109.571 50.5944 109.177 50.5781 108.708 50.5781C108.239 50.5781 107.86 50.5863 107.57 50.6025C107.284 50.6188 107.062 50.6562 106.906 50.7148C106.75 50.7734 106.644 50.8597 106.589 50.9736C106.537 51.0876 106.511 51.2422 106.511 51.4375C106.511 51.6328 106.538 51.7923 106.594 51.916C106.652 52.0365 106.77 52.1309 106.945 52.1992C107.121 52.2676 107.373 52.3148 107.702 52.3408C108.034 52.3636 108.474 52.375 109.021 52.375ZM123.698 47.8438C123.698 47.4531 123.656 47.1439 123.571 46.916C123.487 46.6882 123.347 46.5156 123.151 46.3984C122.956 46.2812 122.699 46.2064 122.38 46.1738C122.064 46.1413 121.672 46.125 121.203 46.125H119.011C118.594 46.125 118.243 46.138 117.956 46.1641C117.673 46.1868 117.438 46.2357 117.253 46.3105C117.067 46.3854 116.924 46.4928 116.823 46.6328C116.722 46.7728 116.649 46.9583 116.604 47.1895C116.558 47.4206 116.532 47.7054 116.525 48.0439C116.519 48.3792 116.516 48.7812 116.516 49.25C116.516 49.7188 116.519 50.1224 116.525 50.4609C116.535 50.7962 116.563 51.0794 116.608 51.3105C116.654 51.5417 116.726 51.7272 116.823 51.8672C116.924 52.0072 117.067 52.1146 117.253 52.1895C117.438 52.2643 117.673 52.3148 117.956 52.3408C118.243 52.3636 118.594 52.375 119.011 52.375H121.203C121.568 52.375 121.882 52.3652 122.146 52.3457C122.409 52.3262 122.634 52.2904 122.819 52.2383C123.005 52.1862 123.155 52.1146 123.269 52.0234C123.382 51.9323 123.47 51.8184 123.532 51.6816C123.597 51.5417 123.641 51.3757 123.664 51.1836C123.687 50.9883 123.698 50.7604 123.698 50.5H124.636C124.636 50.8125 124.616 51.0957 124.577 51.3496C124.538 51.6003 124.468 51.8249 124.367 52.0234C124.27 52.2188 124.138 52.388 123.972 52.5312C123.806 52.6745 123.596 52.7933 123.342 52.8877C123.088 52.9788 122.785 53.0456 122.434 53.0879C122.082 53.1335 121.672 53.1562 121.203 53.1562H119.011C118.438 53.1562 117.954 53.1204 117.561 53.0488C117.17 52.9805 116.848 52.8763 116.594 52.7363C116.34 52.5931 116.143 52.4141 116.003 52.1992C115.866 51.9844 115.765 51.7321 115.7 51.4424C115.638 51.1527 115.603 50.8255 115.593 50.4609C115.583 50.0964 115.578 49.6927 115.578 49.25C115.578 48.8073 115.583 48.4036 115.593 48.0391C115.603 47.6745 115.638 47.3473 115.7 47.0576C115.765 46.7679 115.866 46.5156 116.003 46.3008C116.143 46.0859 116.34 45.9085 116.594 45.7686C116.848 45.6253 117.17 45.5195 117.561 45.4512C117.954 45.3796 118.438 45.3438 119.011 45.3438H121.203C121.672 45.3438 122.082 45.3665 122.434 45.4121C122.785 45.4544 123.088 45.5212 123.342 45.6123C123.596 45.7002 123.806 45.8125 123.972 45.9492C124.138 46.0859 124.27 46.2471 124.367 46.4326C124.468 46.6182 124.538 46.8281 124.577 47.0625C124.616 47.2969 124.636 47.5573 124.636 47.8438H123.698ZM126.203 47.375H127.141V53H126.203V47.375ZM127.141 46.4375H126.203V45.5H127.141V46.4375ZM134.172 50.5C134.172 50.9785 134.133 51.3789 134.055 51.7012C133.977 52.0202 133.845 52.2757 133.659 52.4678C133.477 52.6598 133.236 52.7965 132.937 52.8779C132.637 52.9593 132.268 53 131.828 53C131.402 53 131.044 52.9674 130.754 52.9023C130.464 52.8372 130.23 52.7266 130.051 52.5703C129.872 52.4141 129.743 52.2057 129.665 51.9453C129.587 51.6849 129.548 51.3594 129.548 50.9688V48.1465H128.391V47.375H129.548V45.8369H130.485V47.375H134.016V48.1465H130.485V50.9688C130.485 51.2812 130.508 51.5221 130.554 51.6914C130.603 51.8607 130.679 51.9844 130.783 52.0625C130.887 52.1406 131.024 52.1862 131.193 52.1992C131.366 52.2122 131.576 52.2188 131.823 52.2188C132.019 52.2188 132.193 52.2155 132.346 52.209C132.502 52.2025 132.637 52.1829 132.751 52.1504C132.868 52.1146 132.967 52.0625 133.049 51.9941C133.13 51.9225 133.195 51.8232 133.244 51.6963C133.296 51.5693 133.334 51.4098 133.356 51.2178C133.379 51.0225 133.391 50.7832 133.391 50.5H134.172ZM140.71 52.2285C140.7 52.2676 140.627 52.3652 140.49 52.5215C140.393 52.6387 140.262 52.7428 140.1 52.834C139.937 52.9219 139.719 52.9902 139.445 53.0391C139.175 53.0911 138.819 53.1172 138.376 53.1172C137.787 53.1172 137.284 53.0863 136.867 53.0244C136.451 52.9658 136.11 52.8747 135.847 52.751C135.583 52.624 135.389 52.4629 135.266 52.2676C135.145 52.0723 135.085 51.8395 135.085 51.5693C135.085 51.2861 135.118 51.0469 135.183 50.8516C135.251 50.653 135.349 50.487 135.476 50.3535C135.606 50.2201 135.762 50.1159 135.944 50.041C136.127 49.9661 136.333 49.9092 136.564 49.8701C136.799 49.8311 137.054 49.8066 137.331 49.7969C137.608 49.7871 137.902 49.7822 138.215 49.7822C138.661 49.7822 139.034 49.8018 139.333 49.8408C139.632 49.8766 139.877 49.9238 140.065 49.9824C140.257 50.0378 140.402 50.098 140.5 50.1631C140.598 50.2282 140.668 50.2884 140.71 50.3438C140.71 49.9792 140.694 49.6683 140.661 49.4111C140.632 49.154 140.581 48.9391 140.51 48.7666C140.441 48.5941 140.352 48.4574 140.241 48.3564C140.131 48.2523 139.994 48.1742 139.831 48.1221C139.672 48.07 139.484 48.0374 139.27 48.0244C139.055 48.0081 138.809 48 138.532 48C138.103 48 137.746 48.0114 137.463 48.0342C137.18 48.0537 136.955 48.0944 136.789 48.1562C136.623 48.2181 136.506 48.3044 136.438 48.415C136.369 48.5225 136.335 48.6641 136.335 48.8398H135.397C135.397 48.5436 135.45 48.293 135.554 48.0879C135.661 47.8828 135.837 47.7168 136.081 47.5898C136.328 47.4596 136.652 47.3652 137.053 47.3066C137.453 47.248 137.946 47.2188 138.532 47.2188C139.105 47.2188 139.59 47.266 139.987 47.3604C140.384 47.4548 140.705 47.6208 140.949 47.8584C141.197 48.096 141.374 48.4167 141.481 48.8203C141.592 49.2207 141.647 49.7285 141.647 50.3438V53H140.71V52.2285ZM138.532 52.375C138.946 52.375 139.291 52.3555 139.567 52.3164C139.847 52.2773 140.072 52.2188 140.241 52.1406C140.41 52.0625 140.531 51.9648 140.603 51.8477C140.674 51.7305 140.71 51.5938 140.71 51.4375C140.71 51.2812 140.668 51.1494 140.583 51.042C140.502 50.9313 140.363 50.8418 140.168 50.7734C139.976 50.7051 139.72 50.6562 139.401 50.627C139.082 50.5944 138.688 50.5781 138.22 50.5781C137.751 50.5781 137.372 50.5863 137.082 50.6025C136.796 50.6188 136.574 50.6562 136.418 50.7148C136.262 50.7734 136.156 50.8597 136.101 50.9736C136.049 51.0876 136.022 51.2422 136.022 51.4375C136.022 51.6328 136.05 51.7923 136.105 51.916C136.164 52.0365 136.281 52.1309 136.457 52.1992C136.633 52.2676 136.885 52.3148 137.214 52.3408C137.546 52.3636 137.985 52.375 138.532 52.375ZM153.527 45.5V46.2812H149.777V53H148.84V46.2812H145.09V45.5H153.527ZM155.559 53.1074C154.934 53.1074 154.403 53.0651 153.967 52.9805C153.531 52.8926 153.176 52.7428 152.902 52.5312C152.629 52.3197 152.43 52.0365 152.307 51.6816C152.183 51.3268 152.121 50.8809 152.121 50.3438C152.121 49.7285 152.183 49.2207 152.307 48.8203C152.43 48.4167 152.629 48.096 152.902 47.8584C153.176 47.6208 153.531 47.4548 153.967 47.3604C154.403 47.266 154.934 47.2188 155.559 47.2188C156.005 47.2188 156.39 47.2513 156.716 47.3164C157.045 47.3815 157.325 47.4759 157.556 47.5996C157.79 47.7233 157.979 47.873 158.122 48.0488C158.269 48.2246 158.382 48.4102 158.464 48.6055C158.549 48.7975 158.605 49.0238 158.635 49.2842C158.667 49.5446 158.684 49.8197 158.684 50.1094L158.605 50.4219H153.059C153.059 50.8516 153.101 51.2048 153.186 51.4814C153.27 51.7549 153.41 51.9551 153.605 52.082C153.801 52.209 154.058 52.2904 154.377 52.3262C154.696 52.3587 155.09 52.375 155.559 52.375C155.988 52.375 156.343 52.3636 156.623 52.3408C156.906 52.3148 157.131 52.2676 157.297 52.1992C157.463 52.1309 157.578 52.0365 157.644 51.916C157.712 51.7923 157.746 51.6328 157.746 51.4375H158.684C158.684 51.7402 158.63 51.999 158.522 52.2139C158.418 52.4255 158.244 52.598 158 52.7314C157.756 52.8617 157.434 52.9561 157.033 53.0146C156.636 53.0765 156.145 53.1074 155.559 53.1074ZM155.559 48C155.246 48 154.966 48.0065 154.719 48.0195C154.475 48.0326 154.26 48.0618 154.074 48.1074C153.892 48.1497 153.736 48.2132 153.605 48.2979C153.475 48.3792 153.369 48.4769 153.288 48.5908C153.21 48.7015 153.151 48.8594 153.112 49.0645C153.076 49.2663 153.059 49.5104 153.059 49.7969H157.746C157.746 49.416 157.705 49.1182 157.624 48.9033C157.543 48.6852 157.414 48.5062 157.238 48.3662C157.062 48.2262 156.836 48.1302 156.56 48.0781C156.283 48.026 155.949 48 155.559 48ZM159.934 45.5H160.871V49.6016H161.184L164.621 47.375H166.027L162.043 49.9922L166.184 53H164.777L161.184 50.3047H160.871V53H159.934V45.5ZM172.434 53V49.875C172.434 49.5267 172.408 49.2337 172.355 48.9961C172.303 48.7552 172.199 48.5615 172.043 48.415C171.887 48.2686 171.665 48.1628 171.379 48.0977C171.092 48.0326 170.715 48 170.246 48C169.738 48 169.322 48.0374 168.996 48.1123C168.674 48.1872 168.42 48.293 168.234 48.4297C168.049 48.5664 167.92 48.7308 167.849 48.9229C167.78 49.1149 167.746 49.3281 167.746 49.5625V53H166.809V47.375H167.746V48.3125C167.814 48.153 167.912 48.0163 168.039 47.9023C168.166 47.7852 168.309 47.6859 168.469 47.6045C168.628 47.5231 168.801 47.458 168.986 47.4092C169.172 47.3571 169.357 47.318 169.543 47.292C169.729 47.2627 169.908 47.2432 170.08 47.2334C170.256 47.2236 170.415 47.2188 170.559 47.2188C170.975 47.2188 171.333 47.2448 171.633 47.2969C171.936 47.349 172.191 47.4255 172.399 47.5264C172.611 47.6273 172.78 47.7526 172.907 47.9023C173.034 48.0521 173.132 48.2262 173.2 48.4248C173.272 48.6201 173.319 48.8398 173.342 49.084C173.365 49.3249 173.376 49.5885 173.376 49.875L173.371 53H172.434ZM174.475 50.1484C174.475 49.5723 174.536 49.0954 174.66 48.7178C174.784 48.3402 174.982 48.0407 175.256 47.8193C175.529 47.598 175.884 47.4434 176.32 47.3555C176.757 47.2643 177.287 47.2188 177.912 47.2188C178.537 47.2188 179.068 47.2643 179.504 47.3555C179.94 47.4434 180.295 47.598 180.568 47.8193C180.842 48.0407 181.04 48.3402 181.164 48.7178C181.288 49.0954 181.35 49.5723 181.35 50.1484C181.35 50.7246 181.288 51.2031 181.164 51.584C181.04 51.9648 180.842 52.2676 180.568 52.4922C180.295 52.7168 179.94 52.8763 179.504 52.9707C179.068 53.0618 178.537 53.1074 177.912 53.1074C177.287 53.1074 176.757 53.0618 176.32 52.9707C175.884 52.8763 175.529 52.7168 175.256 52.4922C174.982 52.2676 174.784 51.9648 174.66 51.584C174.536 51.2031 174.475 50.7246 174.475 50.1484ZM175.412 50.1484C175.412 50.4609 175.424 50.7327 175.446 50.9639C175.469 51.195 175.511 51.3936 175.573 51.5596C175.638 51.7256 175.728 51.8607 175.842 51.9648C175.956 52.069 176.105 52.152 176.291 52.2139C176.477 52.2757 176.701 52.318 176.965 52.3408C177.232 52.3636 177.548 52.375 177.912 52.375C178.225 52.375 178.503 52.3685 178.747 52.3555C178.994 52.3392 179.209 52.305 179.392 52.2529C179.577 52.2008 179.735 52.1276 179.865 52.0332C179.995 51.9355 180.1 51.8037 180.178 51.6377C180.259 51.4717 180.318 51.2682 180.354 51.0273C180.393 50.7832 180.412 50.4902 180.412 50.1484C180.412 49.8132 180.393 49.5283 180.354 49.2939C180.318 49.0563 180.259 48.8577 180.178 48.6982C180.1 48.5387 179.995 48.4134 179.865 48.3223C179.735 48.2279 179.577 48.1579 179.392 48.1123C179.209 48.0635 178.994 48.0326 178.747 48.0195C178.503 48.0065 178.225 48 177.912 48C177.6 48 177.32 48.0065 177.072 48.0195C176.828 48.0326 176.613 48.0635 176.428 48.1123C176.245 48.1579 176.089 48.2279 175.959 48.3223C175.829 48.4134 175.723 48.5387 175.642 48.6982C175.563 48.8577 175.505 49.0563 175.466 49.2939C175.43 49.5283 175.412 49.8132 175.412 50.1484ZM182.756 45.5H183.693V53H182.756V45.5ZM185.1 50.1484C185.1 49.5723 185.161 49.0954 185.285 48.7178C185.409 48.3402 185.607 48.0407 185.881 47.8193C186.154 47.598 186.509 47.4434 186.945 47.3555C187.382 47.2643 187.912 47.2188 188.537 47.2188C189.162 47.2188 189.693 47.2643 190.129 47.3555C190.565 47.4434 190.92 47.598 191.193 47.8193C191.467 48.0407 191.665 48.3402 191.789 48.7178C191.913 49.0954 191.975 49.5723 191.975 50.1484C191.975 50.7246 191.913 51.2031 191.789 51.584C191.665 51.9648 191.467 52.2676 191.193 52.4922C190.92 52.7168 190.565 52.8763 190.129 52.9707C189.693 53.0618 189.162 53.1074 188.537 53.1074C187.912 53.1074 187.382 53.0618 186.945 52.9707C186.509 52.8763 186.154 52.7168 185.881 52.4922C185.607 52.2676 185.409 51.9648 185.285 51.584C185.161 51.2031 185.1 50.7246 185.1 50.1484ZM186.037 50.1484C186.037 50.4609 186.049 50.7327 186.071 50.9639C186.094 51.195 186.136 51.3936 186.198 51.5596C186.263 51.7256 186.353 51.8607 186.467 51.9648C186.581 52.069 186.73 52.152 186.916 52.2139C187.102 52.2757 187.326 52.318 187.59 52.3408C187.857 52.3636 188.173 52.375 188.537 52.375C188.85 52.375 189.128 52.3685 189.372 52.3555C189.619 52.3392 189.834 52.305 190.017 52.2529C190.202 52.2008 190.36 52.1276 190.49 52.0332C190.62 51.9355 190.725 51.8037 190.803 51.6377C190.884 51.4717 190.943 51.2682 190.979 51.0273C191.018 50.7832 191.037 50.4902 191.037 50.1484C191.037 49.8132 191.018 49.5283 190.979 49.2939C190.943 49.0563 190.884 48.8577 190.803 48.6982C190.725 48.5387 190.62 48.4134 190.49 48.3223C190.36 48.2279 190.202 48.1579 190.017 48.1123C189.834 48.0635 189.619 48.0326 189.372 48.0195C189.128 48.0065 188.85 48 188.537 48C188.225 48 187.945 48.0065 187.697 48.0195C187.453 48.0326 187.238 48.0635 187.053 48.1123C186.87 48.1579 186.714 48.2279 186.584 48.3223C186.454 48.4134 186.348 48.5387 186.267 48.6982C186.188 48.8577 186.13 49.0563 186.091 49.2939C186.055 49.5283 186.037 49.8132 186.037 50.1484ZM196.35 48C195.985 48 195.669 48.0114 195.402 48.0342C195.139 48.057 194.914 48.0977 194.729 48.1562C194.543 48.2148 194.392 48.2962 194.274 48.4004C194.16 48.5046 194.071 48.638 194.006 48.8008C193.944 48.9635 193.902 49.1605 193.879 49.3916C193.859 49.6195 193.85 49.888 193.85 50.1973C193.85 50.5033 193.859 50.7702 193.879 50.998C193.902 51.2227 193.944 51.4163 194.006 51.5791C194.071 51.7386 194.16 51.8704 194.274 51.9746C194.392 52.0788 194.543 52.1602 194.729 52.2188C194.914 52.2773 195.139 52.318 195.402 52.3408C195.669 52.3636 195.985 52.375 196.35 52.375C196.662 52.375 196.94 52.3685 197.185 52.3555C197.429 52.3392 197.644 52.3066 197.829 52.2578C198.015 52.2057 198.171 52.1325 198.298 52.0381C198.428 51.9404 198.534 51.8118 198.615 51.6523C198.697 51.4896 198.755 51.2894 198.791 51.0518C198.83 50.8109 198.85 50.5212 198.85 50.1826C198.85 49.8441 198.83 49.5544 198.791 49.3135C198.755 49.0726 198.697 48.8724 198.615 48.7129C198.534 48.5501 198.428 48.4215 198.298 48.3271C198.171 48.2327 198.015 48.1611 197.829 48.1123C197.644 48.0635 197.429 48.0326 197.185 48.0195C196.94 48.0065 196.662 48 196.35 48ZM199.787 52.2188C199.787 52.7656 199.725 53.2197 199.602 53.5811C199.478 53.9424 199.279 54.2337 199.006 54.4551C198.732 54.6797 198.378 54.8359 197.941 54.9238C197.505 55.0117 196.975 55.0557 196.35 55.0557C195.764 55.0557 195.271 55.0296 194.87 54.9775C194.473 54.9255 194.152 54.8424 193.908 54.7285C193.664 54.6178 193.488 54.473 193.381 54.2939C193.277 54.1182 193.225 53.9033 193.225 53.6494H194.162C194.162 53.7764 194.195 53.8805 194.26 53.9619C194.328 54.0433 194.445 54.1068 194.611 54.1523C194.777 54.1979 195 54.2288 195.28 54.2451C195.563 54.2646 195.92 54.2744 196.35 54.2744C196.818 54.2744 197.212 54.2565 197.531 54.2207C197.85 54.1882 198.107 54.1084 198.303 53.9814C198.498 53.8545 198.638 53.6624 198.723 53.4053C198.807 53.1481 198.85 52.8047 198.85 52.375C198.804 52.4531 198.731 52.5378 198.63 52.6289C198.532 52.7201 198.387 52.8047 198.195 52.8828C198.007 52.9609 197.762 53.026 197.463 53.0781C197.163 53.1302 196.792 53.1562 196.35 53.1562C195.725 53.1562 195.194 53.109 194.758 53.0146C194.322 52.9235 193.967 52.7656 193.693 52.541C193.42 52.3164 193.221 52.0137 193.098 51.6328C192.974 51.252 192.912 50.7734 192.912 50.1973C192.912 49.6113 192.974 49.1263 193.098 48.7422C193.221 48.3581 193.42 48.0537 193.693 47.8291C193.967 47.6045 194.322 47.4466 194.758 47.3555C195.194 47.2643 195.725 47.2188 196.35 47.2188C196.792 47.2188 197.163 47.2415 197.463 47.2871C197.762 47.3327 198.007 47.3896 198.195 47.458C198.387 47.5264 198.532 47.6012 198.63 47.6826C198.731 47.7607 198.804 47.8324 198.85 47.8975V47.375H199.787V52.2188ZM201.35 47.375H202.287V53H201.35V47.375ZM202.287 46.4375H201.35V45.5H202.287V46.4375Z" fill="#777777"/>
</svg>
