<svg width="40" height="40" viewBox="0 0 40 40" fill="none" xmlns="http://www.w3.org/2000/svg">
<path fill-rule="evenodd" clip-rule="evenodd" d="M23.3333 11.6667C22.8913 11.6667 22.4674 11.8423 22.1548 12.1548C21.8423 12.4674 21.6667 12.8913 21.6667 13.3334V26.6667C21.6667 27.1087 21.8423 27.5326 22.1548 27.8452C22.4674 28.1578 22.8913 28.3334 23.3333 28.3334H30C30.442 28.3334 30.866 28.1578 31.1785 27.8452C31.4911 27.5326 31.6667 27.1087 31.6667 26.6667V13.3334C31.6667 12.8913 31.4911 12.4674 31.1785 12.1548C30.866 11.8423 30.442 11.6667 30 11.6667H23.3333ZM28.3333 15H25V25H28.3333V15Z" fill="#3BB738"/>
<path d="M10 11.6667C9.55798 11.6667 9.13405 11.8423 8.82149 12.1548C8.50893 12.4674 8.33334 12.8913 8.33334 13.3334C8.33334 13.7754 8.50893 14.1993 8.82149 14.5119C9.13405 14.8244 9.55798 15 10 15H16.6667C17.1087 15 17.5326 14.8244 17.8452 14.5119C18.1577 14.1993 18.3333 13.7754 18.3333 13.3334C18.3333 12.8913 18.1577 12.4674 17.8452 12.1548C17.5326 11.8423 17.1087 11.6667 16.6667 11.6667H10ZM10 18.3334C9.55798 18.3334 9.13405 18.5089 8.82149 18.8215C8.50893 19.1341 8.33334 19.558 8.33334 20C8.33334 20.442 8.50893 20.866 8.82149 21.1785C9.13405 21.4911 9.55798 21.6667 10 21.6667H16.6667C17.1087 21.6667 17.5326 21.4911 17.8452 21.1785C18.1577 20.866 18.3333 20.442 18.3333 20C18.3333 19.558 18.1577 19.1341 17.8452 18.8215C17.5326 18.5089 17.1087 18.3334 16.6667 18.3334H10ZM8.33334 26.6667C8.33334 26.2247 8.50893 25.8007 8.82149 25.4882C9.13405 25.1756 9.55798 25 10 25H16.6667C17.1087 25 17.5326 25.1756 17.8452 25.4882C18.1577 25.8007 18.3333 26.2247 18.3333 26.6667C18.3333 27.1087 18.1577 27.5326 17.8452 27.8452C17.5326 28.1578 17.1087 28.3334 16.6667 28.3334H10C9.55798 28.3334 9.13405 28.1578 8.82149 27.8452C8.50893 27.5326 8.33334 27.1087 8.33334 26.6667Z" fill="#3BB738"/>
<path fill-rule="evenodd" clip-rule="evenodd" d="M6.66667 5C5.34059 5 4.06882 5.52678 3.13113 6.46447C2.19345 7.40215 1.66667 8.67392 1.66667 10V30C1.66667 31.3261 2.19345 32.5979 3.13113 33.5355C4.06882 34.4732 5.34059 35 6.66667 35H33.3333C34.6594 35 35.9312 34.4732 36.8689 33.5355C37.8066 32.5979 38.3333 31.3261 38.3333 30V10C38.3333 8.67392 37.8066 7.40215 36.8689 6.46447C35.9312 5.52678 34.6594 5 33.3333 5H6.66667ZM33.3333 8.33333H6.66667C6.22464 8.33333 5.80072 8.50893 5.48816 8.82149C5.1756 9.13405 5 9.55797 5 10V30C5 30.442 5.1756 30.866 5.48816 31.1785C5.80072 31.4911 6.22464 31.6667 6.66667 31.6667H33.3333C33.7754 31.6667 34.1993 31.4911 34.5118 31.1785C34.8244 30.866 35 30.442 35 30V10C35 9.55797 34.8244 9.13405 34.5118 8.82149C34.1993 8.50893 33.7754 8.33333 33.3333 8.33333Z" fill="#3BB738"/>
</svg>
