<svg width="36" height="31" viewBox="0 0 36 31" fill="none" xmlns="http://www.w3.org/2000/svg">
<path d="M7.41668 0.666687C6.42211 0.666687 5.46829 1.06178 4.76503 1.76504C4.06177 2.4683 3.66668 3.42213 3.66668 4.41669V16.9167C3.66668 17.9112 4.06177 18.8651 4.76503 19.5683C5.46829 20.2716 6.42211 20.6667 7.41668 20.6667H23.75C23.0434 19.9747 22.5244 19.1144 22.2417 18.1667H7.41668C7.08516 18.1667 6.76721 18.035 6.53279 17.8006C6.29837 17.5661 6.16668 17.2482 6.16668 16.9167V4.41669C6.16668 4.08517 6.29837 3.76722 6.53279 3.5328C6.76721 3.29838 7.08516 3.16669 7.41668 3.16669H26.5833C26.9149 3.16669 27.2328 3.29838 27.4672 3.5328C27.7016 3.76722 27.8333 4.08517 27.8333 4.41669V10.6667C28.7283 10.6667 29.575 10.8667 30.3333 11.2284V4.41669C30.3333 3.92423 30.2363 3.43659 30.0479 2.98162C29.8594 2.52665 29.5832 2.11326 29.235 1.76504C28.8868 1.41682 28.4734 1.14059 28.0184 0.952138C27.5634 0.763683 27.0758 0.666687 26.5833 0.666687H7.41668ZM1.58334 23.1667H19.18C18.8414 23.822 18.6653 24.5491 18.6667 25.2867V25.4584C18.6667 25.5284 18.6667 25.5967 18.67 25.6667H1.58334C1.25182 25.6667 0.93388 25.535 0.69946 25.3006C0.465039 25.0662 0.333344 24.7482 0.333344 24.4167C0.333344 24.0852 0.465039 23.7672 0.69946 23.5328C0.93388 23.2984 1.25182 23.1667 1.58334 23.1667ZM32 16.5C32 17.6051 31.561 18.6649 30.7796 19.4463C29.9982 20.2277 28.9384 20.6667 27.8333 20.6667C26.7283 20.6667 25.6685 20.2277 24.8871 19.4463C24.1057 18.6649 23.6667 17.6051 23.6667 16.5C23.6667 15.395 24.1057 14.3351 24.8871 13.5537C25.6685 12.7723 26.7283 12.3334 27.8333 12.3334C28.9384 12.3334 29.9982 12.7723 30.7796 13.5537C31.561 14.3351 32 15.395 32 16.5ZM35.3333 25.4584C35.3333 28.0517 33.19 30.6667 27.8333 30.6667C22.4767 30.6667 20.3333 28.0617 20.3333 25.4584V25.2867C20.3333 23.6534 21.6567 22.3334 23.2883 22.3334H32.3783C34.0117 22.3334 35.3333 23.655 35.3333 25.2867V25.4584Z" fill="#3BB738"/>
</svg>
