<svg width="72" height="72" viewBox="0 0 72 72" fill="none" xmlns="http://www.w3.org/2000/svg">
<path d="M57.15 14.7299C54.3996 11.9517 51.1236 9.74894 47.5129 8.25009C43.9023 6.75124 40.0294 5.98632 36.12 5.99993C19.74 5.99993 6.39002 19.3499 6.39002 35.7299C6.39002 40.9799 7.77002 46.0799 10.35 50.5799L6.15002 65.9999L21.9 61.8599C26.25 64.2299 31.14 65.4899 36.12 65.4899C52.5 65.4899 65.85 52.1399 65.85 35.7599C65.85 27.8099 62.76 20.3399 57.15 14.7299ZM36.12 60.4499C31.68 60.4499 27.33 59.2499 23.52 56.9999L22.62 56.4599L13.26 58.9199L15.75 49.7999L15.15 48.8699C12.6833 44.9308 11.3734 40.3777 11.37 35.7299C11.37 22.1099 22.47 11.0099 36.09 11.0099C42.69 11.0099 48.9 13.5899 53.55 18.2699C55.8525 20.5618 57.6771 23.2879 58.9182 26.2902C60.1593 29.2925 60.7921 32.5113 60.78 35.7599C60.84 49.3799 49.74 60.4499 36.12 60.4499ZM49.68 41.9699C48.93 41.6099 45.27 39.8099 44.61 39.5399C43.92 39.2999 43.44 39.1799 42.93 39.8999C42.42 40.6499 41.01 42.3299 40.59 42.8099C40.17 43.3199 39.72 43.3799 38.97 42.9899C38.22 42.6299 35.82 41.8199 33 39.2999C30.78 37.3199 29.31 34.8899 28.86 34.1399C28.44 33.3899 28.8 32.9999 29.19 32.6099C29.52 32.2799 29.94 31.7399 30.3 31.3199C30.66 30.8999 30.81 30.5699 31.05 30.0899C31.29 29.5799 31.17 29.1599 30.99 28.7999C30.81 28.4399 29.31 24.7799 28.71 23.2799C28.11 21.8399 27.48 22.0199 27.03 21.9899H25.59C25.08 21.9899 24.3 22.1699 23.61 22.9199C22.95 23.6699 21.03 25.4699 21.03 29.1299C21.03 32.7899 23.7 36.3299 24.06 36.8099C24.42 37.3199 29.31 44.8199 36.75 48.0299C38.52 48.8099 39.9 49.2599 40.98 49.5899C42.75 50.1599 44.37 50.0699 45.66 49.8899C47.1 49.6799 50.07 48.0899 50.67 46.3499C51.3 44.6099 51.3 43.1399 51.09 42.8099C50.88 42.4799 50.43 42.3299 49.68 41.9699Z" fill="#F8F8F8"/>
</svg>
