<svg width="34" height="34" viewBox="0 0 34 34" fill="none" xmlns="http://www.w3.org/2000/svg">
<path d="M24.2667 20.3333C24.4 19.2333 24.5 18.1333 24.5 17C24.5 15.8667 24.4 14.7667 24.2667 13.6667H29.9C30.1667 14.7333 30.3333 15.85 30.3333 17C30.3333 18.15 30.1667 19.2667 29.9 20.3333M21.3167 29.6C22.3167 27.75 23.0833 25.75 23.6167 23.6667H28.5333C26.9186 26.4471 24.3569 28.5533 21.3167 29.6ZM20.9 20.3333H13.1C12.9333 19.2333 12.8333 18.1333 12.8333 17C12.8333 15.8667 12.9333 14.75 13.1 13.6667H20.9C21.05 14.75 21.1667 15.8667 21.1667 17C21.1667 18.1333 21.05 19.2333 20.9 20.3333ZM17 30.2667C15.6167 28.2667 14.5 26.05 13.8167 23.6667H20.1833C19.5 26.05 18.3833 28.2667 17 30.2667ZM10.3333 10.3333H5.46668C7.06477 7.54537 9.62467 5.43582 12.6667 4.40001C11.6667 6.25001 10.9167 8.25001 10.3333 10.3333ZM5.46668 23.6667H10.3333C10.9167 25.75 11.6667 27.75 12.6667 29.6C9.63105 28.5528 7.07475 26.4462 5.46668 23.6667ZM4.10001 20.3333C3.83334 19.2667 3.66668 18.15 3.66668 17C3.66668 15.85 3.83334 14.7333 4.10001 13.6667H9.73334C9.60001 14.7667 9.50001 15.8667 9.50001 17C9.50001 18.1333 9.60001 19.2333 9.73334 20.3333M17 3.71668C18.3833 5.71668 19.5 7.95001 20.1833 10.3333H13.8167C14.5 7.95001 15.6167 5.71668 17 3.71668ZM28.5333 10.3333H23.6167C23.095 8.26911 22.3226 6.2765 21.3167 4.40001C24.3833 5.45001 26.9333 7.56668 28.5333 10.3333ZM17 0.333344C7.78334 0.333344 0.333344 7.83334 0.333344 17C0.333344 21.4203 2.08929 25.6595 5.2149 28.7851C6.76254 30.3328 8.59986 31.5604 10.622 32.398C12.644 33.2356 14.8113 33.6667 17 33.6667C21.4203 33.6667 25.6595 31.9107 28.7851 28.7851C31.9107 25.6595 33.6667 21.4203 33.6667 17C33.6667 14.8113 33.2356 12.644 32.398 10.622C31.5604 8.59986 30.3328 6.76254 28.7851 5.2149C27.2375 3.66725 25.4002 2.4396 23.3781 1.60202C21.356 0.76444 19.1887 0.333344 17 0.333344Z" fill="#3BB738"/>
</svg>
