<svg width="222" height="550" viewBox="0 0 222 550" fill="none" xmlns="http://www.w3.org/2000/svg">
<path d="M118.048 549.774C175.039 549.774 221.239 523.102 221.239 490.2C221.239 457.298 175.039 430.626 118.048 430.626C61.058 430.626 14.858 457.298 14.858 490.2C14.858 523.102 61.058 549.774 118.048 549.774Z" fill="#E0E0E0"/>
<path d="M71.8392 399.868C71.2105 418.1 72.8548 435.446 71.8392 446.101C71.7425 447.085 78.4324 452.082 85.074 451.405C91.7155 450.728 93.6339 448.487 93.6822 447.778C93.8434 445.311 96.3582 441.958 96.6484 439.508C98.1848 426.747 100.494 414.091 103.564 401.609L71.8392 399.868Z" fill="#C8856A"/>
<path d="M177.669 409.347L147.589 406.768C150.732 422.195 154.037 438.202 156.455 449.019C157.094 452.269 158 455.461 159.163 458.562C160.598 465.526 176.895 466.365 180.119 455.225L179.426 445.731C179.007 436.945 178.25 422.404 177.669 409.347Z" fill="#C8856A"/>
<path d="M36.7613 477.955C36.3421 477.955 35.7134 482.678 37.9703 484.677C40.5818 486.999 48.2228 490.803 58.3303 489.513C68.4377 488.224 71.2265 486.096 75.3211 482.614C79.4157 479.132 83.075 475.473 87.6532 474.425C91.8928 473.474 98.3732 471.717 99.7273 470.362C101.081 469.008 100.904 463.012 100.904 463.012L36.7613 477.955Z" fill="#263238"/>
<path d="M97.0352 436.913C97.4404 436.923 97.8301 437.07 98.1406 437.331C98.451 437.592 98.6637 437.95 98.7439 438.347C99.0502 439.959 99.3888 444.796 100.05 447.536C101.005 453.31 101.227 459.181 100.711 465.01C100.146 468.089 91.377 469.992 86.9439 471.733C82.3724 473.665 78.1805 476.394 74.5634 479.793C69.2952 484.156 62.7179 486.631 55.88 486.821C48.0777 486.821 39.3083 484.161 37.2932 480.373C34.8107 475.779 34.4399 471.362 45.9982 465.865C48.1906 464.817 54.9289 460.755 57.5565 459.046C60.4526 457.234 63.1537 455.127 65.6167 452.759C66.6586 451.768 67.6486 450.724 68.5828 449.632C69.3241 448.618 69.8708 447.476 70.1948 446.262C70.6186 444.006 70.8719 441.722 70.9525 439.427C70.971 439.219 71.0432 439.019 71.1621 438.847C71.2996 438.692 71.4786 438.581 71.6779 438.525C73.5247 438.012 75.461 437.907 77.3523 438.218C79.2991 438.416 81.212 438.866 83.0428 439.556C84.0881 439.809 85.0154 440.412 85.6704 441.265C86.0317 441.949 86.2042 442.717 86.1701 443.49C86.1216 444.257 86.1216 445.027 86.1701 445.795C86.1966 446.072 86.303 446.335 86.4764 446.553C86.8633 446.956 87.492 446.633 87.8305 446.311C88.9677 445.116 90.008 443.834 90.9417 442.474C91.4898 441.765 93.9401 441.33 94.6333 440.782C95.3185 440.379 95.9805 439.937 96.6161 439.46C97.406 438.783 97.003 437.864 97.0352 436.913Z" fill="#37474F"/>
<path d="M74.5634 479.793C76.2645 478.271 78.0572 476.855 79.9315 475.553C79.9315 475.553 67.6156 480.567 62.1185 476.698C58.5721 474.215 60.2647 471.201 60.3453 470.25C60.4259 469.299 51.7048 465.139 48.2712 464.72C47.3039 465.268 46.4979 465.704 45.9982 465.945C34.4399 471.459 34.8107 475.876 37.2932 480.454C39.3083 484.178 45.6597 487.079 55.7349 487.079C62.64 486.78 69.2555 484.22 74.5634 479.793Z" fill="#455A64"/>
<path d="M61.2964 467.396C54.1068 470.362 57.1696 471.733 59.1847 472.039C61.1997 472.345 71.3394 466.316 78.7225 460.319C86.428 454.049 93.1341 447.423 96.0035 445.134C97.0675 444.264 98.212 443.216 99.2276 442.232C99.0503 440.62 98.889 439.121 98.744 438.347C98.6199 437.911 98.3834 437.514 98.0581 437.197C97.7328 436.88 97.3301 436.654 96.8901 436.542L96.6483 439.508C96.0365 440.02 95.3218 440.393 94.5527 440.604C93.2309 440.967 92.0077 441.622 90.974 442.523C90.0403 443.882 88.9999 445.165 87.8627 446.359C81.5758 454.565 68.4861 464.446 61.2964 467.396Z" fill="#263238"/>
<path d="M59.7005 470.943C59.8656 470.946 60.0262 470.888 60.1519 470.781C60.2996 470.656 60.3923 470.478 60.4104 470.285C60.4285 470.092 60.3704 469.9 60.2486 469.75C58.5735 467.955 56.5276 466.547 54.2532 465.623C51.9788 464.698 49.5305 464.28 47.0783 464.398C46.8901 464.426 46.7199 464.525 46.6029 464.675C46.4859 464.825 46.431 465.014 46.4496 465.204C46.4556 465.3 46.481 465.394 46.5245 465.48C46.5679 465.566 46.6285 465.642 46.7024 465.704C46.7763 465.766 46.8621 465.812 46.9544 465.84C47.0468 465.867 47.1438 465.876 47.2395 465.865C49.4548 465.778 51.6631 466.165 53.7172 466.999C55.7714 467.833 57.6242 469.095 59.1524 470.701C59.2183 470.781 59.3023 470.845 59.3975 470.887C59.4928 470.929 59.5966 470.948 59.7005 470.943Z" fill="#F0F0F0"/>
<path d="M65.9875 467.3C66.1511 467.312 66.3131 467.26 66.4388 467.155C66.5854 467.029 66.6787 466.853 66.6996 466.661C66.7206 466.469 66.6677 466.277 66.5516 466.123C64.9189 464.29 62.9065 462.834 60.6544 461.857C58.4023 460.88 55.9645 460.405 53.5103 460.465C53.3327 460.502 53.175 460.603 53.0668 460.749C52.9587 460.894 52.9078 461.075 52.9237 461.255C52.9396 461.436 53.0212 461.605 53.1531 461.729C53.285 461.854 53.4579 461.926 53.6393 461.932C55.8545 461.898 58.0516 462.335 60.0856 463.213C62.1197 464.091 63.9444 465.391 65.4394 467.026C65.5028 467.111 65.5854 467.181 65.6806 467.228C65.7759 467.276 65.881 467.3 65.9875 467.3Z" fill="#F0F0F0"/>
<path d="M71.7907 463.189C71.957 463.183 72.1165 463.121 72.2421 463.012C72.3862 462.884 72.4764 462.707 72.4944 462.515C72.5123 462.323 72.4568 462.132 72.3388 461.98C70.6642 460.186 68.618 458.779 66.3432 457.857C64.0684 456.935 61.6198 456.521 59.1685 456.644C59.0736 456.654 58.9816 456.683 58.8981 456.729C58.8146 456.775 58.7413 456.838 58.6826 456.913C58.6239 456.989 58.581 457.075 58.5565 457.167C58.532 457.259 58.5263 457.356 58.5398 457.45C58.5457 457.544 58.5708 457.636 58.6134 457.72C58.6561 457.804 58.7154 457.879 58.7879 457.939C58.8603 458 58.9442 458.044 59.0346 458.071C59.125 458.098 59.2199 458.106 59.3136 458.095C61.5314 458.007 63.7424 458.393 65.7994 459.227C67.8563 460.061 69.712 461.324 71.2426 462.931C71.3077 463.014 71.3911 463.08 71.4862 463.125C71.5814 463.17 71.6856 463.192 71.7907 463.189Z" fill="#F0F0F0"/>
<path d="M76.917 459.417C76.9982 459.425 77.0801 459.416 77.1577 459.391C77.2354 459.366 77.3071 459.325 77.3684 459.272C77.5188 459.154 77.6178 458.982 77.6449 458.793C77.6719 458.604 77.6249 458.411 77.5135 458.256C75.9207 456.395 73.9426 454.902 71.7159 453.88C69.4891 452.859 67.067 452.333 64.6172 452.34C64.5219 452.346 64.4287 452.371 64.343 452.413C64.2573 452.456 64.1808 452.514 64.1179 452.586C64.055 452.658 64.0069 452.742 63.9764 452.832C63.9459 452.923 63.9336 453.018 63.9401 453.114C63.9442 453.208 63.9672 453.301 64.0077 453.387C64.0483 453.472 64.1056 453.549 64.1762 453.612C64.2468 453.675 64.3293 453.723 64.4189 453.754C64.5085 453.785 64.6033 453.797 64.6978 453.791C66.9149 453.803 69.1043 454.284 71.1216 455.204C73.1389 456.124 74.9383 457.461 76.4012 459.127C76.4604 459.21 76.5374 459.279 76.6266 459.329C76.7158 459.38 76.815 459.409 76.917 459.417Z" fill="#F0F0F0"/>
<path d="M82.4302 455C82.5912 455.012 82.7513 454.966 82.8815 454.871C83.0331 454.75 83.1326 454.576 83.1596 454.384C83.1866 454.192 83.139 453.997 83.0266 453.839C80.3829 450.115 74.1605 447.471 68.8569 447.858C68.6658 447.879 68.4902 447.973 68.3669 448.12C68.2436 448.267 68.1823 448.457 68.1959 448.648C68.2084 448.838 68.2947 449.015 68.4364 449.142C68.5781 449.268 68.7638 449.334 68.9536 449.325C73.7897 448.987 79.5285 451.405 81.8499 454.71C81.9135 454.804 82.0003 454.88 82.1019 454.931C82.2036 454.982 82.3167 455.005 82.4302 455Z" fill="#F0F0F0"/>
<path d="M159.356 496.445C159.856 503.635 160.968 508.39 163.548 512.566C166.127 516.741 170.786 518.014 175.525 516.708C180.264 515.403 186.277 512.017 187.551 505.779C188.824 499.54 188.502 495.301 187.341 488.643L159.356 496.445Z" fill="#263238"/>
<path d="M179.426 445.698C181.038 446.23 181.635 456.064 182.892 465.736C184.23 476.085 186.116 479.196 187.245 487.676C188.615 497.348 187.986 500.572 184.762 506.569C181.538 512.565 169.883 518.417 163.999 510.083C159.163 503.296 159.082 496.767 159.389 487.063C159.686 479.356 159.556 471.639 159.002 463.946C158.518 456.676 154.778 449.809 156.455 448.987C156.69 450.834 157.106 452.653 157.696 454.419C157.908 455.362 158.267 456.265 158.76 457.095C159.695 458.449 160.114 456.225 160.098 455.387C160.098 453.952 159.598 452.807 160.678 451.598C161.503 450.813 162.487 450.214 163.564 449.841C164.703 449.35 165.892 448.982 167.11 448.745C169.599 448.296 172.128 448.113 174.655 448.197C175.201 448.161 175.749 448.251 176.255 448.46C176.761 448.67 177.212 448.994 177.573 449.406C177.716 449.638 177.814 449.895 177.863 450.164C178.072 451.115 177.975 452.098 178.185 453.049C178.185 453.307 178.346 454 178.588 454.161C178.83 454.323 179.249 454.242 179.265 454.049C179.281 453.855 179.62 447.391 179.426 445.698Z" fill="#37474F"/>
<path d="M186.793 484.355C187.003 485.757 188.067 494.495 185.633 496.203C183.198 497.912 181.441 490.787 181.441 490.787C181.441 490.787 175.17 488.901 166.159 493.124C166.643 494.624 165.305 499.572 162.806 498.589C160.308 497.606 159.373 488.046 159.356 487.901C159.098 497.219 159.356 503.49 163.999 510.083C169.883 518.417 181.522 512.485 184.762 506.569C188.002 500.653 188.615 497.38 187.245 487.676C187.116 486.708 186.987 485.241 186.793 484.355Z" fill="#455A64"/>
<path d="M180.732 491.416C180.829 494.93 183.859 493.672 184.262 488.723C184.859 481.308 182.973 474.215 182.892 465.736C181.635 456.064 181.377 445.827 179.426 445.698C179.523 447.31 179.265 454.049 179.265 454.049C179.974 461.287 181.925 469.718 181.748 477.197C181.586 483.775 180.651 487.901 180.732 491.416Z" fill="#263238"/>
<path d="M167.207 493.012C166.514 489.562 165.418 488.595 164.644 482.066C163.87 475.537 160.275 463.866 158.792 456.741C158.405 454.564 156.471 448.987 156.455 448.922C155.246 449.535 156.455 453.597 157.486 457.95C158.518 462.302 159.179 464.994 159.856 469.234C161.645 477.568 162 486.451 163.177 491.271C164.354 496.091 167.9 496.445 167.207 493.012Z" fill="#263238"/>
<path d="M166.433 493.189C166.524 493.179 166.611 493.152 166.691 493.108C171.345 490.786 176.658 490.143 181.732 491.287C181.922 491.33 182.121 491.297 182.287 491.195C182.453 491.092 182.572 490.928 182.618 490.739C182.663 490.549 182.632 490.349 182.533 490.18C182.434 490.012 182.274 489.889 182.086 489.836C176.651 488.57 170.943 489.261 165.966 491.786C165.798 491.887 165.674 492.049 165.621 492.237C165.567 492.426 165.586 492.628 165.676 492.802C165.745 492.938 165.856 493.049 165.992 493.118C166.128 493.188 166.282 493.212 166.433 493.189Z" fill="#F0F0F0"/>
<path d="M164.37 486.241H164.612C164.692 486.241 173.317 481.969 182.151 483.936C182.343 483.97 182.54 483.928 182.702 483.82C182.864 483.712 182.978 483.546 183.021 483.356C183.06 483.163 183.023 482.964 182.918 482.799C182.813 482.633 182.647 482.515 182.457 482.469C176.19 481.339 169.727 482.189 163.967 484.903C163.879 484.946 163.8 485.006 163.735 485.08C163.67 485.153 163.62 485.239 163.589 485.332C163.557 485.425 163.545 485.523 163.551 485.621C163.558 485.719 163.584 485.815 163.628 485.903C163.705 486.025 163.817 486.123 163.948 486.183C164.08 486.243 164.227 486.263 164.37 486.241Z" fill="#F0F0F0"/>
<path d="M183.07 478.149C183.211 478.132 183.345 478.075 183.453 477.983C183.562 477.891 183.642 477.769 183.682 477.633C183.743 477.447 183.729 477.244 183.641 477.069C183.553 476.894 183.4 476.76 183.215 476.698C174.413 473.764 162.951 478.149 162.581 478.31C162.409 478.408 162.284 478.569 162.229 478.759C162.175 478.948 162.197 479.152 162.29 479.325C162.382 479.494 162.538 479.62 162.722 479.674C162.906 479.728 163.105 479.707 163.274 479.616C163.354 479.616 174.558 475.328 182.763 478.003C182.852 478.076 182.957 478.126 183.07 478.149Z" fill="#F0F0F0"/>
<path d="M181.57 471.878C181.708 471.859 181.839 471.802 181.947 471.714C182.055 471.626 182.137 471.51 182.183 471.378C182.246 471.192 182.234 470.989 182.149 470.811C182.065 470.634 181.915 470.496 181.731 470.427C172.059 467.009 162.21 472.587 161.871 472.813C161.708 472.918 161.593 473.084 161.55 473.274C161.508 473.464 161.542 473.663 161.646 473.828C161.694 473.912 161.758 473.984 161.835 474.042C161.912 474.1 162 474.141 162.093 474.164C162.187 474.186 162.284 474.19 162.379 474.174C162.474 474.157 162.564 474.122 162.645 474.07C162.645 474.07 172.237 468.67 181.248 471.845C181.352 471.879 181.462 471.89 181.57 471.878Z" fill="#F0F0F0"/>
<path d="M180.877 464.221C181.012 464.199 181.139 464.141 181.244 464.053C181.349 463.965 181.429 463.85 181.474 463.721C181.537 463.537 181.527 463.335 181.446 463.158C181.365 462.981 181.219 462.842 181.038 462.77C171.963 459.417 161.42 465.123 161.065 465.349C160.895 465.453 160.773 465.619 160.725 465.812C160.677 466.005 160.706 466.209 160.807 466.381C160.852 466.465 160.914 466.539 160.989 466.598C161.064 466.657 161.15 466.7 161.243 466.724C161.335 466.749 161.431 466.753 161.526 466.739C161.62 466.724 161.71 466.69 161.791 466.639C161.887 466.639 172.124 461.061 180.555 464.172C180.657 464.213 180.767 464.23 180.877 464.221Z" fill="#EBEBEB"/>
<path d="M116.396 285.124L108.916 331.647C110.291 340.713 110.831 349.886 110.528 359.051C109.867 372.48 102.049 412.426 99.2438 426.66C84.3969 435.688 70.7913 425.983 70.7913 425.983C70.7913 425.983 66.9063 347.928 65.7457 329.084C64.585 310.239 67.3577 233.861 68.2282 203.99L163.532 204.264C163.532 204.264 165.305 220.384 166.885 244.339C168.465 268.294 172.075 332.614 172.075 332.614C181.748 361.163 177.701 379.911 179.394 433.237C175.678 436.076 171.271 437.871 166.63 438.438C161.988 439.004 157.279 438.322 152.989 436.461C152.989 436.461 138.964 384.086 133.564 362.84C130.985 352.7 121.619 308.611 116.396 285.204" fill="#455A64"/>
<path d="M79.2384 250.529L76.6752 287.155C76.514 293.006 75.2405 305.822 75.1438 311.674C75.0471 317.525 74.8697 323.377 75.1438 329.132C75.4178 334.887 78.126 382.329 77.6747 394.097C76.0626 381.088 73.2254 341.029 72.5162 329.261C72.226 317.413 73.5478 304 75.0793 287.01C76.6107 270.019 77.7875 262.168 79.2384 250.529Z" fill="#37474F"/>
<path d="M132.016 244.259C136.482 263.474 143.816 313.125 145.493 326.472C147.169 339.82 159.469 392.147 160.727 405.543C158.454 392.275 144.606 340.191 142.881 326.827C141.157 313.463 134.805 268.584 132.016 244.259Z" fill="#37474F"/>
<path d="M108.771 248.788L116.396 285.156L108.916 331.679L112.011 292.765L103.725 252.98C103.725 252.98 88.169 248.24 84.1067 232.023C92.0379 245.032 108.771 248.788 108.771 248.788Z" fill="#37474F"/>
<path d="M84.1228 87.5851C75.3534 89.0198 66.7773 93.4529 60.1358 106.655C54.6871 117.521 53.4297 126.935 44.8376 144.103L8.87305 143.523L15.3212 166.494C15.3212 166.494 36.7613 170.299 47.8521 171.185C56.154 171.846 59.4909 169.573 64.5366 162.867C71.1137 154.017 80.3023 133.286 80.3023 133.286L84.1228 87.5851Z" fill="#C8856A"/>
<path d="M84.6548 87.0853C79.4479 87.9236 71.2749 90.5351 66.6484 96.0643C62.0219 101.594 57.8789 109.283 53.7521 121.567C49.6253 133.85 48.8032 136.268 48.8032 136.268C48.8032 136.268 52.93 141.314 62.5538 144.619C72.1777 147.923 76.6591 146.65 76.6591 146.65L84.7193 118.859L84.6548 87.0853Z" fill="#3BB738"/>
<path d="M133.499 83.7163C148.008 86.9404 154.295 88.4073 161.178 90.0193C161.178 90.0193 172.93 114.313 166.772 139.589C165.353 145.409 164.612 162.674 163.644 175.054C162.838 185.226 163.644 199.605 164.757 214.081C164.757 214.081 144.139 227.365 103.499 223.189C71.565 219.965 67.7284 208.036 67.7284 208.036C67.7284 208.036 69.6628 162.513 69.4371 138.896C69.1147 107.478 81.1083 91.309 84.7031 87.1016C85.8477 86.4406 107.53 83.1682 107.53 83.1682L133.499 83.7163Z" fill="#FAFAFA"/>
<path d="M107.578 84.7964L133.37 85.3445C147.089 88.4234 153.343 89.8582 160.082 91.4218C161.887 95.5325 170.641 117.118 165.256 139.203C164.192 143.523 163.515 153.808 162.854 163.738C162.613 167.526 162.355 171.459 162.081 174.909C161.275 185.065 162.081 199.251 163.112 213.163C159.582 215.113 144.655 222.351 118.959 222.351C113.86 222.348 108.765 222.084 103.693 221.561C75.8852 218.708 70.1302 209.229 69.3887 207.714C69.566 203.345 71.3071 161.142 71.0814 138.864C70.7912 109.106 81.8175 93.1306 85.6864 88.4718C87.7982 87.9076 98.2603 86.1988 107.642 84.7964M107.546 83.1843C107.546 83.1843 85.8637 86.4084 84.7192 87.1177C81.1243 91.3251 69.1308 107.494 69.4532 138.912C69.6789 162.529 67.7444 208.052 67.7444 208.052C67.7444 208.052 71.5811 219.949 103.515 223.206C108.646 223.741 113.8 224.015 118.959 224.028C149.41 224.028 164.821 214.098 164.821 214.098C163.741 199.589 162.903 185.242 163.709 175.07C164.676 162.706 165.418 145.441 166.836 139.606C172.994 114.329 161.242 90.0355 161.242 90.0355C154.359 88.4234 148.12 87.0049 133.564 83.7324L107.546 83.1682V83.1843Z" fill="#E0E0E0"/>
<path d="M145.332 27.4079C143.397 23.0231 140.834 20.9597 139.19 20.2988C139.017 16.4643 137.694 12.7705 135.394 9.69731C133.095 6.62415 129.924 4.3137 126.294 3.06615C121.249 1.53326 115.938 1.07742 110.705 1.72816C105.643 2.14729 100.146 2.90495 95.8423 0.228969C95.6887 0.0989297 95.4954 0.0250297 95.2942 0.0194092C95.1633 0.0486978 95.0415 0.109577 94.9396 0.196734C94.4785 0.617103 94.1493 1.16221 93.992 1.76597C93.8346 2.36972 93.8558 3.00618 94.053 3.59813C94.4781 4.77585 95.22 5.81341 96.1969 6.59651C92.7499 6.86609 89.4301 8.01738 86.5563 9.93983C83.6825 11.8623 81.3513 14.4913 79.7865 17.5745C78.8728 20.484 78.6955 23.5747 79.2706 26.5696C79.5103 25.6732 79.9896 24.859 80.657 24.2143C81.3244 23.5696 82.1547 23.1188 83.0589 22.9103C82.5269 23.0231 82.1561 25.957 82.1078 26.4406C81.9655 27.7424 82.0253 29.0583 82.2851 30.3418C82.6397 31.9538 83.5425 35.5325 85.0578 36.5159C86.5731 37.4992 88.8622 36.8705 90.442 36.7577L99.824 36.0161L120.12 34.4041L125.375 34.0011C124.976 36.1977 124.905 38.4414 125.165 40.6588C125.826 46.6394 132.597 52.6362 132.597 52.6362L132.258 60.9543L132.097 72.8995C133.979 72.2999 135.56 71.0019 136.514 69.2724C139.776 63.9269 142.221 58.124 143.768 52.0559C147.847 36.4997 147.266 31.7926 145.332 27.4079Z" fill="#263238"/>
<path d="M143.236 61.6798C137.094 64.7588 134.209 59.9065 134.209 59.9065L133.596 86.7147C121.925 102.738 90.168 96.7415 102.968 84.6835V77.1392C101.175 77.0732 99.3878 76.9009 97.6156 76.6233C92.1185 75.8334 88.6365 71.9807 86.9278 66.0806C84.413 57.3273 83.2846 43.3026 86.4119 28.3268C87.0084 25.4412 88.2174 22.2817 90.845 20.9437C97.3738 17.6068 103.516 22.2172 112.704 25.6669C116.509 27.1016 125.713 27.6336 128.131 26.4729C124.907 30.0355 126.938 39.1435 127.825 42.0291C129.099 46.172 130.888 48.187 131.758 48.3644C135.514 49.0898 135.918 45.8818 137.578 44.0925C138.386 43.3952 139.345 42.8953 140.379 42.6324C141.413 42.3694 142.495 42.3505 143.537 42.5772C144.58 42.8039 145.556 43.27 146.388 43.9386C147.22 44.6073 147.885 45.4602 148.33 46.4299C149.008 47.7635 149.415 49.2187 149.526 50.7107C149.636 52.2028 149.449 53.702 148.975 55.1211C148.501 56.5402 147.75 57.8509 146.764 58.9769C145.779 60.1028 144.58 61.0216 143.236 61.6798Z" fill="#C8856A"/>
<path d="M126.261 69.7561C125.052 75.8335 116.896 79.928 103 80.4278V77.2037C106.418 77.1241 109.825 76.7737 113.188 76.1559C119.652 74.9307 126.261 69.7561 126.261 69.7561Z" fill="#AF6152"/>
<path d="M112.446 35.4035L118.524 37.9667C118.849 37.1409 118.846 36.2222 118.517 35.3983C118.187 34.5744 117.555 33.9074 116.75 33.5336C116.347 33.3603 115.911 33.2715 115.472 33.2725C115.033 33.2735 114.598 33.3643 114.195 33.5395C113.792 33.7146 113.429 33.9703 113.128 34.2909C112.827 34.6114 112.595 34.99 112.446 35.4035Z" fill="#263238"/>
<path d="M89.5715 37.1124L95.9229 35.194C95.8132 34.7767 95.621 34.3857 95.3574 34.0441C95.0939 33.7025 94.7644 33.4172 94.3886 33.2053C94.0127 32.9933 93.5982 32.859 93.1695 32.8101C92.7408 32.7613 92.3067 32.799 91.8928 32.9211C91.0407 33.1864 90.3238 33.7703 89.8914 34.551C89.4589 35.3318 89.3444 36.2493 89.5715 37.1124Z" fill="#263238"/>
<path d="M116.315 41.9162C116.305 42.4499 116.137 42.9686 115.832 43.4064C115.527 43.8442 115.098 44.1814 114.601 44.3752C114.103 44.5689 113.56 44.6104 113.039 44.4944C112.518 44.3785 112.043 44.1102 111.675 43.7238C111.306 43.3374 111.061 42.8503 110.971 42.3243C110.88 41.7984 110.948 41.2573 111.165 40.7698C111.383 40.2824 111.74 39.8706 112.192 39.5868C112.644 39.3029 113.17 39.1599 113.704 39.1758C114.055 39.1841 114.401 39.2617 114.723 39.4039C115.044 39.5462 115.335 39.7504 115.577 40.0049C115.82 40.2594 116.01 40.5592 116.136 40.8871C116.263 41.2151 116.324 41.5648 116.315 41.9162Z" fill="#263238"/>
<path d="M96.0841 41.6583C96.1024 42.0281 96.0443 42.3977 95.9134 42.7439C95.7824 43.0902 95.5815 43.4057 95.3231 43.6708C95.0647 43.9359 94.7544 44.1449 94.4115 44.2846C94.0687 44.4244 93.7008 44.4919 93.3307 44.483C92.9606 44.4741 92.5963 44.389 92.2606 44.233C91.9249 44.0769 91.6249 43.8533 91.3795 43.5761C91.1341 43.2989 90.9486 42.9741 90.8344 42.6219C90.7202 42.2698 90.68 41.8978 90.716 41.5294C90.7244 41.1779 90.8019 40.8316 90.9442 40.5101C91.0865 40.1886 91.2907 39.8983 91.5452 39.6558C91.7997 39.4133 92.0994 39.2233 92.4274 39.0967C92.7553 38.9701 93.105 38.9093 93.4565 38.9179C93.8194 38.8858 94.185 38.9357 94.5262 39.0638C94.8673 39.1919 95.1753 39.3949 95.4275 39.658C95.6797 39.921 95.8696 40.2373 95.9832 40.5835C96.0969 40.9297 96.1313 41.297 96.0841 41.6583Z" fill="#263238"/>
<path d="M104.515 38.6115L101.968 54.5706L93.7144 52.6039C95.9218 47.0138 99.6663 42.1627 104.515 38.6115Z" fill="#AF6152"/>
<path d="M110.883 56.5535L101.63 60.1805C101.833 60.8066 102.162 61.3845 102.596 61.879C103.03 62.3735 103.561 62.7741 104.156 63.0563C104.75 63.3385 105.396 63.4964 106.054 63.5202C106.712 63.5441 107.367 63.4334 107.981 63.1951C109.235 62.6852 110.241 61.7053 110.783 60.4645C111.325 59.2238 111.361 57.8203 110.883 56.5535Z" fill="#AF6152"/>
<path d="M109.98 58.2945C110.369 58.1882 110.769 58.1287 111.173 58.1172C111.226 59.1869 110.944 60.2465 110.366 61.1482C109.788 62.0498 108.943 62.7485 107.949 63.1467C107.432 63.3344 106.887 63.4325 106.337 63.4369C106.158 62.2745 106.437 61.088 107.117 60.1283C107.797 59.1686 108.824 58.511 109.98 58.2945Z" fill="#F28F8F"/>
<path d="M0.973903 110.718L3.32751 109.106C3.66956 108.932 4.04793 108.841 4.43175 108.841C4.81556 108.841 5.19394 108.932 5.53599 109.106L65.8906 133.85C67.0023 134.374 67.9873 135.132 68.7777 136.072C69.5681 137.013 70.145 138.114 70.4687 139.299L81.1242 189.143C81.2816 189.554 81.3088 190.003 81.2021 190.43C81.0954 190.857 80.86 191.241 80.5278 191.529L78.1097 193.141C77.7686 193.327 77.3861 193.425 76.9974 193.425C76.6088 193.425 76.2263 193.327 75.8851 193.141L15.5306 168.348C14.4184 167.821 13.4333 167.06 12.643 166.117C11.8528 165.174 11.276 164.07 10.9524 162.883C8.85675 153.114 2.36028 122.953 0.248517 113.184C-0.00940882 111.959 0.296848 111.089 0.973903 110.718Z" fill="#3BB738"/>
<path opacity="0.7" d="M0.973903 110.718L3.32751 109.106C3.66956 108.932 4.04793 108.841 4.43175 108.841C4.81556 108.841 5.19394 108.932 5.53599 109.106L65.8906 133.85C67.0023 134.374 67.9873 135.132 68.7777 136.072C69.5681 137.013 70.145 138.114 70.4687 139.299L81.1242 189.143C81.2816 189.554 81.3088 190.003 81.2021 190.43C81.0954 190.857 80.86 191.241 80.5278 191.529L78.1097 193.141C77.7686 193.327 77.3861 193.425 76.9974 193.425C76.6088 193.425 76.2263 193.327 75.8851 193.141L15.5306 168.348C14.4184 167.821 13.4333 167.06 12.643 166.117C11.8528 165.174 11.276 164.07 10.9524 162.883C8.85675 153.114 2.36028 122.953 0.248517 113.184C-0.00940882 111.959 0.296848 111.089 0.973903 110.718Z" fill="white"/>
<path d="M65.8424 137.123C66.9195 138.178 67.6934 139.503 68.0831 140.96L78.787 190.659C78.9283 191.06 78.9549 191.493 78.8638 191.909C78.7727 192.324 78.5674 192.707 78.2711 193.012L80.5441 191.497C80.8785 191.206 81.1163 190.821 81.2258 190.392C81.3352 189.962 81.3112 189.51 81.1567 189.095L70.4528 139.38C70.0973 138.018 69.3915 136.773 68.4055 135.769L65.8424 137.123Z" fill="#3BB738"/>
<path d="M78.7709 190.659L68.0669 140.943C67.7411 139.761 67.1651 138.663 66.3781 137.723C65.591 136.783 64.6112 136.023 63.5049 135.495L3.1342 110.766C1.0708 109.928 -0.218796 111.008 0.248694 113.184C2.36046 122.953 8.85693 153.114 10.9526 162.883C11.2762 164.07 11.853 165.174 12.6432 166.117C13.4335 167.06 14.4185 167.821 15.5307 168.348L75.9014 193.077C77.9487 193.979 79.2383 192.835 78.7709 190.659Z" fill="#3BB738"/>
<path opacity="0.4" d="M78.7709 190.659L68.0669 140.943C67.7411 139.761 67.1651 138.663 66.3781 137.723C65.591 136.783 64.6112 136.023 63.5049 135.495L3.1342 110.766C1.0708 109.928 -0.218796 111.008 0.248694 113.184C2.36046 122.953 8.85693 153.114 10.9526 162.883C11.2762 164.07 11.853 165.174 12.6432 166.117C13.4335 167.06 14.4185 167.821 15.5307 168.348L75.9014 193.077C77.9487 193.979 79.2383 192.835 78.7709 190.659Z" fill="white"/>
<path d="M66.7773 150.954L64.7623 141.653C64.7021 141.43 64.5947 141.222 64.4473 141.044C64.2999 140.866 64.1159 140.722 63.9079 140.621L59.7649 138.928C59.3781 138.767 59.1363 138.928 59.2169 139.38C59.6038 141.217 60.8289 146.86 61.2158 148.681C61.2759 148.904 61.3833 149.112 61.5307 149.29C61.6781 149.468 61.8621 149.612 62.0701 149.713L66.2292 151.406C66.6645 151.551 66.9063 151.357 66.7773 150.954Z" fill="#455A64"/>
<path d="M64.3431 143.748C64.1813 143.195 63.9016 142.684 63.523 142.25C63.1445 141.816 62.6764 141.469 62.1508 141.233C61.1675 140.814 60.5388 141.233 60.7483 142.281C60.9063 142.836 61.1827 143.349 61.5584 143.786C61.9342 144.223 62.4003 144.573 62.9245 144.812C63.924 145.215 64.5527 144.748 64.3431 143.748Z" fill="#263238"/>
<path d="M65.2942 148.439C65.1314 147.887 64.8533 147.376 64.4781 146.94C64.1029 146.504 63.6393 146.152 63.118 145.908C62.1186 145.505 61.506 145.908 61.6994 146.972C61.8611 147.527 62.1407 148.041 62.5191 148.477C62.8974 148.914 63.3657 149.264 63.8918 149.503C64.8751 149.906 65.5199 149.439 65.2942 148.439Z" fill="#263238"/>
<path d="M2.29597 142.507C0.345406 139.444 0.571079 139.073 1.7801 137.671C2.7028 136.517 3.88793 135.601 5.23672 134.998C6.58551 134.395 8.05887 134.123 9.53399 134.205C12.1132 134.415 14.7409 134.495 15.9821 135.253C17.2234 136.011 15.9821 138.767 12.5808 139.347C7.21268 140.266 7.16429 141.701 7.16429 141.701C7.16429 141.701 12.1133 140.879 14.0961 140.863C16.7143 141.193 19.3018 141.732 21.8338 142.475C24.0423 142.942 24.3486 145.86 20.4958 146.65L24.5582 147.52C27.4115 148.133 28.3142 149.713 25.9606 151.373C25.1972 151.953 24.2588 152.254 23.3008 152.228C23.3008 152.228 26.3636 152.373 26.3798 153.404C26.3798 156.322 24.4775 156.999 18.1906 158.466C12.1938 159.869 10.8075 162.98 11.8715 165.237C11.8715 165.237 9.56623 163.738 7.51894 162.158C6.03587 160.997 4.77848 159.724 5.60062 157.322C5.60062 157.322 2.23148 157.209 2.13475 155.113C2.16539 153.578 2.52257 152.067 3.18257 150.68C2.60585 150.298 2.14866 149.761 1.86349 149.131C1.57832 148.501 1.47676 147.803 1.57053 147.117C1.63849 145.797 2.13669 144.534 2.98913 143.523L2.29597 142.507Z" fill="#C8856A"/>
<path d="M20.5764 146.586C19.362 146.271 18.1206 146.071 16.8687 145.989C15.6011 146.11 14.3606 146.431 13.1933 146.94C10.8786 147.829 8.64096 148.908 6.50333 150.164C8.91237 149.661 11.2744 148.955 13.564 148.053C14.6505 147.571 15.7781 147.188 16.9332 146.908C18.0455 146.715 19.3513 146.763 20.5764 146.586Z" fill="#AF6152"/>
<path d="M23.3813 152.163C22.0886 151.71 20.7015 151.593 19.3512 151.825C18.0197 152.03 16.7126 152.37 15.4501 152.84C12.9289 153.708 10.5077 154.842 8.22821 156.225C10.7944 155.572 13.3236 154.781 15.8048 153.856C18.2029 152.825 20.7724 152.251 23.3813 152.163Z" fill="#AF6152"/>
<path d="M119.201 131.287C114.252 127.08 111.721 125.42 109.351 124.597C106.981 123.775 98.6956 119.761 95.4877 118.681C93.4404 118.036 92.4087 121.277 94.8912 123.695C96.8095 125.565 101.936 128.176 104.177 129.579C106.417 130.981 110.625 136.784 110.625 136.784L119.201 131.287Z" fill="#AF6152"/>
<path d="M181.861 108.961C177.379 97.6765 173.01 94.2912 161.388 90.5029C148.943 101.223 155.907 130.884 155.907 130.884L166.723 161.739C166.723 161.739 141.882 153.437 138.497 150.97C135.111 148.504 126.326 137.784 123.36 134.56C119.297 130.159 117.137 130.578 114.929 130.772C107.691 131.4 106.095 131.9 104.515 132.77C104.037 133.046 103.638 133.44 103.356 133.914C103.073 134.388 102.918 134.927 102.903 135.479C100.985 135.592 98.0669 135.366 97.5833 138.461C97.3755 139.277 97.2832 140.118 97.3093 140.96C96.8196 141.014 96.3638 141.236 96.0197 141.588C94.327 143.329 96.6484 149.842 98.2765 151.502C99.4211 152.663 101.146 152.905 103.419 152.744C105.369 152.598 104.596 150.583 104.596 150.583L107.288 150.906C112.849 155.403 112.64 163.625 120.184 165.914C123.351 166.432 126.464 167.236 129.485 168.316C145.719 174.925 166.562 193.48 181.2 195.72C195.547 197.864 197.401 189.482 197.32 180.632C197.352 166.575 186.31 120.229 181.861 108.961Z" fill="#C8856A"/>
<path d="M103 135.543L112.124 135.253L103.225 134.383C103.082 134.753 103.006 135.146 103 135.543Z" fill="#AF6152"/>
<path d="M97.406 141.024L107.272 140.363L97.4705 139.896C97.4069 140.268 97.3853 140.647 97.406 141.024Z" fill="#AF6152"/>
<path d="M105.579 149.262C105.027 148.735 104.645 148.056 104.483 147.311C103.342 147.223 102.207 147.078 101.081 146.876C100.643 146.744 100.213 146.588 99.7918 146.408C99.2689 146.184 98.8012 145.849 98.4216 145.425C98.7193 145.942 99.1546 146.366 99.679 146.65C100.131 146.908 100.613 147.108 101.114 147.247L101.597 148.488C101.223 148.501 100.861 148.618 100.549 148.826C100.121 149.131 99.7949 149.558 99.6145 150.051C99.8896 149.638 100.253 149.291 100.678 149.036C101.093 148.833 101.565 148.776 102.016 148.875C103.106 149.092 104.067 149.729 104.692 150.648L107.385 150.97C106.745 150.442 106.142 149.871 105.579 149.262Z" fill="#AF6152"/>
<path d="M166.723 161.739C172.93 163.351 180.764 170.266 182.28 173.748C180.49 166.14 175.831 159.788 165.176 157.354L166.723 161.739Z" fill="#AF6152"/>
<path d="M161.178 90.0193C171.334 92.5502 177.298 95.4196 181.345 105.882C185.391 116.344 193.354 150.084 193.354 150.084C193.354 150.084 192.677 152.131 181.345 154.807C170.012 157.483 162.661 154.807 162.661 154.807C162.661 154.807 156.664 135.914 154.601 130.352C152.538 124.791 147.573 98.3213 161.178 90.0193Z" fill="#3BB738"/>
</svg>
