<svg width="338" height="525" viewBox="0 0 338 525" fill="none" xmlns="http://www.w3.org/2000/svg">
<path d="M88.9952 524.485C138.132 524.485 177.965 501.484 177.965 473.112C177.965 444.739 138.132 421.739 88.9952 421.739C39.8584 421.739 0.0252075 444.739 0.0252075 473.112C0.0252075 501.484 39.8584 524.485 88.9952 524.485Z" fill="#E0E0E0"/>
<path d="M122.388 426.19C122.798 419.606 126.332 353.278 126.332 353.278L94.0916 376.02C99.7212 413.926 100.961 425.359 101.197 431.683C101.065 432.214 101.015 432.762 101.048 433.308C101.222 440.822 110.224 444.753 117.28 449.663C123.291 453.996 129.659 457.812 136.314 461.071C141.422 463.415 151.69 463.489 152.905 460.377C144.324 454.35 134.392 447.766 127.522 440.847C124.261 437.536 121.88 434.089 122.388 426.19Z" fill="#FFA8A7"/>
<path d="M167.524 468.251C167.958 468.251 168.69 472.789 166.371 474.761C163.693 477.03 155.769 480.8 145.192 479.659C134.615 478.518 128.824 475.48 124.534 472.219C120.243 468.958 114.242 464.258 109.443 463.328C104.991 462.46 100.13 460.625 98.692 459.335C97.2536 458.046 97.328 452.255 97.328 452.255L167.524 468.251Z" fill="#263238"/>
<path d="M101.122 429.848C100.743 429.865 100.38 430.01 100.094 430.26C99.8074 430.51 99.6148 430.85 99.5476 431.225C99.25 432.837 98.9896 437.487 98.3076 440.115C97.4024 443.773 96.894 451.275 97.5264 454.214C98.1588 457.153 105.438 459.174 110.1 460.737C115.55 462.904 120.652 465.862 125.24 469.516C130.275 473.335 140.79 477.092 147.672 477.08C158.175 477.08 164.933 474.277 166.966 470.657C169.446 466.18 167.4 463.638 155.224 458.492C152.917 457.513 144.808 453.111 142.03 451.511C134.59 447.196 127.15 441.132 123.542 433.345C123.246 432.369 122.619 431.527 121.768 430.964C121.01 430.685 120.184 430.641 119.4 430.84C117.399 431.138 115.452 431.727 113.622 432.589C112.01 433.345 109.728 434.225 109.802 436.197C109.857 436.889 110.025 437.568 110.298 438.206C110.447 438.603 110.571 439.136 110.212 439.384C109.852 439.632 109.393 439.384 109.071 439.099C107.868 437.946 106.757 436.703 105.748 435.379C105.173 434.696 104.519 434.084 103.801 433.556C103.081 433.179 102.382 432.765 101.705 432.316C101.011 431.634 101.172 430.84 101.122 429.848Z" fill="#37474F"/>
<path d="M157.22 459.36C142.03 460.6 137.38 469.578 136.872 475.108C140.365 476.309 144.017 476.982 147.709 477.105C158.212 477.105 165.404 474.302 167.438 470.681C169.806 466.428 168.082 463.08 157.22 459.36Z" fill="#FAFAFA"/>
<path d="M134.416 459.806C134.248 459.805 134.084 459.753 133.945 459.658C133.871 459.602 133.808 459.531 133.761 459.451C133.714 459.37 133.684 459.281 133.672 459.188C133.661 459.095 133.668 459.001 133.694 458.912C133.719 458.822 133.763 458.738 133.821 458.666C135.604 456.883 137.736 455.487 140.083 454.566C142.43 453.644 144.942 453.216 147.461 453.309C147.556 453.315 147.648 453.34 147.733 453.382C147.818 453.424 147.894 453.483 147.956 453.554C148.018 453.625 148.065 453.709 148.096 453.798C148.126 453.888 148.138 453.983 148.131 454.078C148.109 454.27 148.012 454.446 147.861 454.566C147.71 454.687 147.517 454.743 147.325 454.722C145.039 454.649 142.763 455.038 140.632 455.867C138.501 456.696 136.56 457.947 134.925 459.546C134.863 459.622 134.786 459.685 134.698 459.73C134.611 459.775 134.515 459.801 134.416 459.806Z" fill="#F0F0F0"/>
<path d="M127.807 456.273C127.638 456.274 127.473 456.222 127.336 456.124C127.258 456.07 127.193 456.001 127.144 455.92C127.095 455.839 127.063 455.749 127.052 455.655C127.04 455.562 127.048 455.467 127.076 455.376C127.103 455.286 127.15 455.203 127.212 455.132C128.991 453.343 131.122 451.943 133.47 451.021C135.818 450.099 138.331 449.675 140.852 449.775C140.947 449.781 141.039 449.806 141.124 449.848C141.209 449.89 141.284 449.949 141.347 450.02C141.409 450.092 141.456 450.175 141.486 450.264C141.516 450.354 141.528 450.449 141.522 450.544C141.497 450.735 141.399 450.908 141.249 451.029C141.098 451.149 140.907 451.206 140.716 451.189C138.429 451.108 136.151 451.494 134.019 452.324C131.887 453.153 129.946 454.408 128.316 456.012C128.184 456.159 128.003 456.252 127.807 456.273Z" fill="#F0F0F0"/>
<path d="M121.657 452.218C121.488 452.218 121.324 452.166 121.186 452.069C121.109 452.014 121.045 451.944 120.998 451.863C120.95 451.783 120.919 451.693 120.907 451.6C120.896 451.507 120.903 451.412 120.93 451.322C120.956 451.232 121.001 451.149 121.062 451.077C122.842 449.291 124.973 447.893 127.321 446.971C129.668 446.049 132.181 445.623 134.702 445.72C134.8 445.721 134.897 445.742 134.986 445.782C135.076 445.822 135.156 445.881 135.222 445.954C135.288 446.027 135.338 446.112 135.368 446.206C135.399 446.299 135.41 446.398 135.4 446.495C135.391 446.593 135.361 446.688 135.313 446.773C135.265 446.859 135.199 446.934 135.121 446.993C135.042 447.051 134.952 447.093 134.857 447.115C134.761 447.138 134.662 447.14 134.565 447.121C132.28 447.048 130.003 447.438 127.873 448.267C125.742 449.096 123.8 450.347 122.165 451.945C122.038 452.099 121.856 452.198 121.657 452.218Z" fill="#F0F0F0"/>
<path d="M115.68 448.2C115.516 448.21 115.353 448.162 115.221 448.064C115.143 448.011 115.077 447.942 115.027 447.863C114.976 447.783 114.943 447.694 114.929 447.6C114.915 447.507 114.921 447.412 114.945 447.321C114.97 447.23 115.013 447.145 115.072 447.072C117.924 443.525 124.459 441.132 129.952 441.628C130.047 441.634 130.139 441.659 130.224 441.701C130.309 441.743 130.385 441.802 130.447 441.873C130.509 441.945 130.557 442.028 130.587 442.118C130.617 442.208 130.629 442.302 130.622 442.397C130.597 442.587 130.499 442.759 130.348 442.878C130.197 442.996 130.006 443.05 129.816 443.029C124.856 442.595 118.73 444.79 116.176 447.927C116.116 448.003 116.041 448.067 115.955 448.114C115.87 448.16 115.777 448.19 115.68 448.2Z" fill="#F0F0F0"/>
<path d="M69.2792 372.82L35.6752 365.554C34.7948 386.349 35.328 414.497 34.6212 434.014C34.4848 437.734 32.5752 462.534 33.6416 470.148C35.2288 481.606 50.5924 480.862 51.8572 474.116C53.122 467.37 54.238 438.54 54.4984 435.552C55.2052 423.04 62.3476 402.072 67.3448 379.752C67.5928 378.673 69.0436 373.887 69.2792 372.82Z" fill="#FFA8A7"/>
<path d="M57.2884 479.2C57.152 485.884 56.1848 490.36 53.68 494.353C51.1752 498.346 46.24 499.772 41.0072 498.817C35.7744 497.862 29.128 495.097 27.3672 489.356C25.6064 483.614 25.7552 479.708 26.6356 473.484L57.2884 479.2Z" fill="#263238"/>
<path d="M34.6956 431.621C32.5876 431.857 32.3768 440.822 31.5708 449.825C30.7028 459.484 27.64 463.576 26.834 471.487C25.9164 480.539 26.6356 484.545 30.4548 489.852C34.274 495.159 47.1824 500.02 53.06 491.997C57.8464 485.462 57.7348 478.357 56.8668 469.441C55.9492 460.166 55.23 453.656 55.3416 446.588C55.4408 439.843 56.5816 433.556 54.734 432.874C54.6472 433.866 54.5604 435.131 54.4612 436.098C54.3744 436.854 54.3372 440.512 53.2212 440.587C53.0845 439.747 53.0346 438.895 53.0724 438.045C53.1179 437.66 53.0818 437.27 52.9665 436.9C52.8511 436.531 52.659 436.19 52.4028 435.899C51.3878 435.296 50.2541 434.919 49.0796 434.796C46.984 434.511 44.876 434.263 42.7556 434.176C41.7016 434.176 40.6476 434.176 39.5936 434.176C38.689 434.195 37.7916 434.341 36.9276 434.61C36.689 434.684 36.4687 434.807 36.2807 434.971C36.0927 435.136 35.9414 435.338 35.8364 435.565C35.7627 435.908 35.7627 436.263 35.8364 436.606C35.8613 437.228 35.7987 437.85 35.6504 438.454C35.6504 438.727 35.39 439.061 35.0924 438.999C34.7948 438.937 34.7328 438.689 34.7204 438.479C34.7204 437.387 34.7204 436.594 34.7204 435.329C34.7204 434.746 34.7948 433.94 34.7204 433.357C34.646 432.775 34.6708 432.204 34.6956 431.621Z" fill="#37474F"/>
<path d="M26.4868 476.72C26.3752 482.312 26.9084 486.132 29.9092 490.286C33.7284 495.593 47.6536 500.441 53.4692 492.418C56.3956 488.426 57.0156 483.813 57.1892 479.113C53.2708 473.26 32.1412 471.4 26.4868 476.72Z" fill="#FAFAFA"/>
<path d="M51.4232 469.553C51.334 469.544 51.2464 469.523 51.1628 469.491C45.2631 467.537 38.9476 467.198 32.8728 468.511C32.682 468.564 32.4783 468.544 32.3016 468.455C32.125 468.365 31.9881 468.213 31.918 468.028C31.8923 467.936 31.8864 467.84 31.9007 467.746C31.9149 467.652 31.9489 467.563 32.0005 467.483C32.0521 467.403 32.1201 467.335 32.2 467.284C32.2798 467.232 32.3697 467.199 32.4636 467.184C38.8766 465.749 45.5614 466.109 51.7828 468.226C51.8731 468.253 51.9566 468.299 52.0275 468.361C52.0985 468.423 52.1553 468.499 52.1941 468.585C52.2329 468.671 52.2528 468.764 52.2525 468.858C52.2521 468.953 52.2315 469.046 52.192 469.131C52.1171 469.267 52.005 469.379 51.8688 469.454C51.7327 469.528 51.5782 469.563 51.4232 469.553Z" fill="#F0F0F0"/>
<path d="M33.0836 461.84C32.9395 461.837 32.7992 461.794 32.6786 461.715C32.558 461.636 32.462 461.525 32.4016 461.394C32.3648 461.306 32.3473 461.212 32.3504 461.117C32.3535 461.022 32.377 460.929 32.4194 460.845C32.4618 460.76 32.5221 460.685 32.5961 460.626C32.6701 460.567 32.756 460.524 32.848 460.501C42.1852 457.327 51.7208 461.22 52.13 461.394C52.2187 461.424 52.2997 461.474 52.3678 461.538C52.4358 461.603 52.4893 461.681 52.5245 461.768C52.5597 461.855 52.576 461.948 52.5721 462.042C52.5682 462.136 52.5443 462.228 52.502 462.311C52.3965 462.482 52.2329 462.608 52.0415 462.667C51.8501 462.727 51.6437 462.715 51.4604 462.634C51.3612 462.634 42.0984 458.827 33.406 461.79C33.3023 461.826 33.1932 461.843 33.0836 461.84Z" fill="#F0F0F0"/>
<path d="M33.3316 455.442C33.191 455.437 33.0541 455.396 32.9344 455.322C32.8148 455.248 32.7166 455.144 32.6496 455.02C32.6146 454.932 32.5981 454.839 32.6013 454.744C32.6045 454.65 32.6272 454.557 32.668 454.472C32.7087 454.387 32.7667 454.311 32.8383 454.25C32.9098 454.188 32.9933 454.142 33.0836 454.115C39.5111 451.921 46.527 452.213 52.75 454.933C52.8381 454.968 52.9175 455.022 52.9825 455.091C53.0475 455.159 53.0966 455.242 53.1262 455.332C53.1558 455.422 53.1652 455.517 53.1537 455.611C53.1423 455.705 53.1103 455.795 53.06 455.876C52.9444 456.041 52.7731 456.16 52.5774 456.21C52.3817 456.26 52.1745 456.238 51.9936 456.149C46.1862 453.667 39.671 453.398 33.6788 455.392C33.5694 455.439 33.4497 455.456 33.3316 455.442Z" fill="#F0F0F0"/>
<path d="M33.654 448.312C33.5141 448.311 33.377 448.272 33.257 448.2C33.1371 448.128 33.0386 448.026 32.972 447.903C32.9348 447.816 32.9163 447.722 32.9177 447.628C32.9192 447.534 32.9405 447.441 32.9803 447.356C33.0201 447.27 33.0775 447.194 33.1487 447.132C33.2199 447.071 33.3034 447.025 33.3936 446.997C42.9912 443.414 52.7996 447.803 53.2336 448.002C53.321 448.035 53.4 448.088 53.465 448.155C53.5301 448.223 53.5797 448.303 53.6104 448.392C53.6411 448.48 53.6521 448.575 53.6427 448.668C53.6333 448.761 53.6037 448.851 53.556 448.932C53.4445 449.099 53.2771 449.22 53.0839 449.275C52.8907 449.329 52.6844 449.313 52.502 449.229C52.4028 449.229 42.9416 444.939 34.026 448.262C33.9091 448.313 33.7802 448.33 33.654 448.312Z" fill="#EBEBEB"/>
<path d="M49.7864 202.432C48.9928 240.277 42.2348 324.336 42.2348 324.336C41.6644 328.986 34.9312 348.752 34.6832 365.566C34.2988 391.941 33.7284 411.918 33.7284 411.918C33.7284 411.918 48.472 417.758 59.2972 413.716C59.2972 413.716 73.3712 357.643 77.3268 340.146C82.0264 319.302 93.7568 280.552 93.7568 280.552L92.9012 335.633C91.5319 346.685 91.3863 357.855 92.4672 368.939C93.7072 380.099 98.2208 410.988 98.2208 410.988C98.2208 410.988 111.786 413.728 123.542 410.244C123.542 410.244 130.622 343.804 131.205 333.587C131.874 321.931 135.47 204.701 135.47 204.701L49.7864 202.432Z" fill="#455A64"/>
<path d="M93.7568 280.552L99.0268 245.435C99.0268 245.435 111.886 244.927 120.702 236.668C120.702 236.668 119.598 244.914 103.516 249.874L97.4272 279.486L92.7152 334.604L93.7568 280.552Z" fill="#37474F"/>
<path d="M116.709 92.0969C123.542 91.7373 136.264 91.3033 145.415 102.562C151.838 110.474 169.36 129.508 179.292 142.081C185.951 135.15 202.083 118.36 204.737 113.45C207.228 108.85 209.247 104.01 210.763 99.0037C211.74 96.0688 212.45 93.0516 212.884 89.9889C213.38 86.2431 213.442 82.4526 213.07 78.6925C212.995 75.2825 218.03 77.0309 220.014 82.4125C220.996 85.4059 221.494 88.5371 221.489 91.6877C223.374 90.7949 228.842 88.1041 229.686 87.7197C232.662 86.3309 242.086 83.0201 243.003 88.3397C243.214 89.5797 242.83 90.8197 243.35 91.9233C243.646 92.4228 243.995 92.8885 244.392 93.3121C245.063 94.1826 245.486 95.2191 245.615 96.3109C245.744 97.4028 245.574 98.5091 245.124 99.5121C244.672 100.381 244.494 101.367 244.615 102.339C244.861 103.342 244.903 104.383 244.739 105.402C244.403 106.175 243.987 106.91 243.499 107.597C243.047 108.587 242.77 109.649 242.681 110.734C242.586 111.82 242.344 112.888 241.962 113.908C240.92 116.264 238.068 116.81 235.873 117.628C232.533 118.739 229.251 120.018 226.04 121.46C220.782 124.932 206.584 150.6 192.213 167.042C187.253 172.684 182.876 176.206 178.201 175.598C174.419 175.512 169.744 172.089 165.243 168.158C150.921 155.758 127.919 131.479 127.919 131.479C118.321 119.836 115.68 99.9089 116.709 92.0969Z" fill="#FFA8A7"/>
<path d="M123.12 90.1873C127.658 90.8941 130.783 90.7577 136.562 94.0437C141.646 96.9205 143.468 99.3633 149.358 105.948C155.248 112.532 169.322 129.644 169.322 129.644C169.322 129.644 163.333 143.966 144.783 149.162L124.248 129.247L123.12 90.1873Z" fill="#455A64"/>
<path d="M225.296 92.2333C222.37 93.2625 221.576 95.2465 221.849 99.4873C221.973 101.967 221.378 106.679 218.699 108.638C220.015 108.458 221.244 107.878 222.221 106.977C223.461 105.6 223.82 105.439 224.552 106.183C225.109 106.668 225.771 107.017 226.486 107.2C226.041 107.745 225.783 108.419 225.749 109.122C225.716 109.826 225.909 110.521 226.3 111.106C227.689 113.251 233.592 113.102 238.341 110.449C238.341 110.449 230.578 113.14 228.681 110.709C226.784 108.279 230.839 105.018 233.902 104.075C233.902 104.075 226.387 106.121 225.147 103.666C223.907 101.211 226.982 99.2393 231.347 97.9621C231.347 97.9621 225.147 99.3013 223.982 97.2057C222.655 94.6637 224.502 93.1013 225.296 92.2333Z" fill="#F28F8F"/>
<path d="M53.37 94.0684C53.37 94.0684 46.0912 100.467 44.2312 107.386C43.3136 110.784 42.4828 113.586 45.3596 132.496C48.1 150.513 48.0876 155.907 48.72 169.944L49.4268 207.64C60.2148 220.263 112.506 227.133 137.678 210.12C137.678 210.12 137.826 144.871 136.041 123.32C134.801 108.713 130.362 94.9984 125.327 90.5096C118.495 89.2696 111.91 88.5256 111.91 88.5256L86.7384 87.0624L53.37 94.0684Z" fill="#3BB738"/>
<path d="M124.571 41.7529C127.931 34.0649 124.645 23.8597 120.64 19.0733C114.849 12.1541 105.834 9.15326 92.2438 10.0089C81.9146 10.6537 71.7466 14.9689 69.8122 25.5461C61.5042 28.0261 62.459 41.6661 64.5174 47.6801C68.7086 59.8817 76.9174 70.5085 77.091 76.7581L124.571 41.7529Z" fill="#37474F"/>
<path d="M124.571 70.4713C122.934 76.3613 119.524 80.6889 114.068 81.5445C111.206 81.8131 108.325 81.8131 105.462 81.5445L105.686 89.0589C113.014 95.3333 110.323 103.579 105.438 111.007C99.3492 104.249 92.3928 101.843 86.3168 99.1649C82.5149 97.3379 79.4082 94.3269 77.4632 90.5841L76.682 65.2385C76.682 65.2385 73.3464 69.0329 67.8532 65.4493C65.6358 63.803 64.0547 61.4418 63.3769 58.7646C62.6992 56.0874 62.9663 53.2583 64.1332 50.7553C66.8488 45.0141 72.3048 47.3825 74.0532 49.1309C75.8016 50.8793 77.6864 54.1653 79.0876 53.7065C79.893 53.4568 80.6238 53.0111 81.2146 52.4095C81.8054 51.8079 82.2377 51.0691 82.4728 50.2593C83.7426 46.6793 84.3436 42.8965 84.246 39.0993C85.8119 38.2705 87.2183 37.1705 88.4 35.8505C90.593 33.5249 91.9082 30.5087 92.12 27.3193C103.9 23.5993 117.453 25.3725 122.351 29.1669C125.166 34.1269 125.265 45.6589 125.736 52.3053C126.257 59.5221 125.935 65.5485 124.571 70.4713Z" fill="#FFA8A7"/>
<path d="M105.462 81.5816C99.436 81.2468 87.3088 78.432 84.0848 75.0592C80.8608 71.6864 79.4844 64.8168 79.4844 64.8168C79.4844 64.8168 79.968 73.4968 82.4604 77.3408C84.9528 81.1848 91.2644 82.8588 95.096 83.8012C98.556 84.5299 102.054 85.0639 105.574 85.4008L105.462 81.5816Z" fill="#F28F8F"/>
<path d="M105.425 111.044C102.276 109.11 95.3192 101.211 91.7852 104.844C88.2512 108.477 86.4656 109.531 84.184 108.849C81.9024 108.167 76.8432 103.182 73.5448 99.5368C71.4174 96.9615 69.9302 93.919 69.2048 90.6584C70.8956 88.6055 72.4489 86.4432 73.8548 84.1856C75.4172 81.408 75.0948 80.6268 77.0912 80.4656L77.2648 85.7108C77.2648 85.7108 78.5048 88.5752 84.2088 92.444C89.9128 96.3128 101.358 102.128 105.425 111.044Z" fill="#455A64"/>
<path d="M105.425 111.044C107.31 109.333 110.385 101.335 111.179 101.57C112.419 101.918 114.539 107.436 115.581 106.146C117.23 104.112 116.722 94.8372 113.981 91.4644C111.241 88.0916 107.595 84.4956 105.537 84.1484L105.686 89.1084C106.911 91.6 107.604 94.3198 107.719 97.094C107.694 99.884 105.822 108.353 105.425 111.044Z" fill="#455A64"/>
<path d="M101.656 48.4489C101.656 48.9394 101.51 49.4189 101.238 49.8267C100.965 50.2345 100.578 50.5524 100.125 50.7401C99.6715 50.9278 99.1728 50.9769 98.6918 50.8812C98.2107 50.7855 97.7688 50.5493 97.422 50.2025C97.0751 49.8557 96.8389 49.4138 96.7432 48.9327C96.6476 48.4516 96.6967 47.953 96.8844 47.4998C97.0721 47.0467 97.3899 46.6593 97.7978 46.3868C98.2056 46.1143 98.6851 45.9689 99.1756 45.9689C99.8333 45.9689 100.464 46.2302 100.929 46.6953C101.394 47.1603 101.656 47.7911 101.656 48.4489Z" fill="#263238"/>
<path d="M98.2456 40.6617L93.36 43.9601C92.9224 43.2832 92.7645 42.4629 92.9194 41.672C93.0744 40.881 93.5301 40.181 94.1908 39.7193C94.5177 39.511 94.883 39.37 95.2651 39.3046C95.6472 39.2392 96.0386 39.2508 96.4162 39.3385C96.7938 39.4263 97.1501 39.5885 97.4642 39.8157C97.7784 40.0429 98.044 40.3305 98.2456 40.6617Z" fill="#263238"/>
<path d="M121.88 42.9433L116.461 40.3517C116.614 39.991 116.838 39.6651 117.12 39.3938C117.403 39.1225 117.737 38.9115 118.104 38.7734C118.47 38.6354 118.861 38.5734 119.252 38.591C119.643 38.6087 120.027 38.7056 120.38 38.8761C121.105 39.2307 121.666 39.8513 121.945 40.6088C122.225 41.3664 122.201 42.2025 121.88 42.9433Z" fill="#263238"/>
<path d="M120.07 48.3001C120.07 48.7906 119.924 49.27 119.652 49.6779C119.379 50.0857 118.992 50.4036 118.539 50.5913C118.085 50.779 117.587 50.8281 117.106 50.7324C116.625 50.6367 116.183 50.4005 115.836 50.0537C115.489 49.7069 115.253 49.265 115.157 48.7839C115.062 48.3028 115.111 47.8042 115.298 47.351C115.486 46.8979 115.804 46.5105 116.212 46.238C116.62 45.9655 117.099 45.8201 117.59 45.8201C118.247 45.8201 118.878 46.0814 119.343 46.5464C119.808 47.0115 120.07 47.6423 120.07 48.3001Z" fill="#263238"/>
<path d="M107.248 43.2161L109.009 60.7373L118.42 57.8977L107.248 43.2161Z" fill="#F28F8F"/>
<path d="M101.643 64.8168L111.724 67.0488C111.608 67.7207 111.356 68.3621 110.986 68.9347C110.616 69.5073 110.134 69.9993 109.569 70.3813C109.004 70.7633 108.368 71.0274 107.698 71.1579C107.029 71.2885 106.34 71.2826 105.673 71.1408C104.312 70.8152 103.131 69.9736 102.379 68.7937C101.628 67.6137 101.364 66.1878 101.643 64.8168Z" fill="#B16668"/>
<path d="M105.673 71.1408C105.881 71.1837 106.093 71.2086 106.306 71.2153C106.276 69.9916 105.77 68.8278 104.894 67.9728C104.018 67.1178 102.842 66.6393 101.618 66.6396C101.758 67.7127 102.22 68.7181 102.944 69.5221C103.669 70.326 104.62 70.8906 105.673 71.1408Z" fill="#F28F8F"/>
<path d="M187.054 150.005L121.148 162.901L96.8196 242.1L159.601 228.174L187.054 150.005Z" fill="#263238"/>
<path opacity="0.15" d="M132.098 209.624C131.454 212.24 130.126 214.637 128.25 216.57C126.374 218.503 124.017 219.902 121.421 220.623C112.741 222.904 103.739 219.581 103.739 219.581L105.772 212.96L132.098 209.624Z" fill="black"/>
<path opacity="0.15" d="M167.326 160.433L168.02 157.953C168.405 156.614 164.61 156.304 159.539 157.284L149.83 159.144C144.758 160.111 140.331 161.996 139.91 163.335L139.215 165.815L167.326 160.433Z" fill="black"/>
<path d="M172.422 151.394C172.67 150.563 171.182 150.228 169.012 150.674L165.168 151.48C165.168 151.48 166.644 146.198 158.125 147.525C149.606 148.852 147.387 154.816 147.387 154.816L143.282 155.696C141.013 156.192 138.905 157.259 138.595 158.09L138.012 159.602L171.964 152.956C171.964 152.956 172.187 152.237 172.422 151.394Z" fill="#3BB738"/>
<path opacity="0.3" d="M172.422 151.394C172.67 150.563 171.182 150.228 169.012 150.674L165.168 151.48C165.168 151.48 166.644 146.198 158.125 147.525C149.606 148.852 147.387 154.816 147.387 154.816L143.282 155.696C141.013 156.192 138.905 157.259 138.595 158.09L138.012 159.602L171.964 152.956C171.964 152.956 172.187 152.237 172.422 151.394Z" fill="black"/>
<path d="M140.344 163.632C140.666 162.516 143.778 161.028 147.784 160.012C147.784 159.863 147.858 159.726 147.895 159.615C148.193 158.375 147.734 157.693 145.341 158.164L145.204 157.209L168.764 152.807L167.735 153.774C164.623 154.308 163.321 154.642 162.775 156.713L162.639 157.184C166.359 156.763 168.839 157.184 168.529 158.251L167.834 160.731L139.761 166.112L140.344 163.632Z" fill="#3BB738"/>
<path opacity="0.4" d="M140.344 163.632C140.666 162.516 143.778 161.028 147.784 160.012C147.784 159.863 147.858 159.726 147.895 159.615C148.193 158.375 147.734 157.693 145.341 158.164L145.204 157.209L168.764 152.807L167.735 153.774C164.623 154.308 163.321 154.642 162.775 156.713L162.639 157.184C166.359 156.763 168.839 157.184 168.529 158.251L167.834 160.731L139.761 166.112L140.344 163.632Z" fill="black"/>
<path d="M110.968 196.058C119.028 198.762 127.088 198.96 135.47 198.948C137.516 198.948 139.066 199.258 139.674 201.204C139.885 201.899 140.17 202.854 137.529 203.684C136.747 203.812 136.025 204.185 135.47 204.751C134.863 205.718 135.16 206.685 134.999 207.814C134.611 209.452 133.748 210.94 132.519 212.092C131.329 213.571 129.934 214.873 128.378 215.96C123.269 219.172 115.395 219.569 109.579 218.626C105.614 217.859 101.732 216.713 97.9852 215.204C94.4264 213.89 72.8132 207.516 70.2464 206.623C51.1628 199.964 24.9244 191.743 23.3744 182.753C21.8244 173.763 26.6852 145.553 30.1572 122.564C32.9596 103.964 40.4864 97.3917 52.6756 94.8497C66.0428 110.027 57.6356 136.328 57.6356 136.328L52.7748 171.37C54.8332 173.081 86.0564 190.602 91.4504 192.351C93.3972 192.983 97.0676 192.214 99.0144 191.545C104.222 189.772 107.806 189.92 112.853 190.144" fill="#FFA8A7"/>
<path d="M53.37 94.0685C40.412 95.8417 32.7488 102.476 30.12 115.024C27.9252 125.564 23.8456 159.602 23.8456 159.602C32.4512 167.191 46.5748 166.782 54.2256 164.128L58.1688 136.848C61.3556 129.793 66.3404 108.924 53.37 94.0685Z" fill="#455A64"/>
<path d="M45 204.639L38.4652 208.26C38.0385 208.526 37.681 208.89 37.4223 209.321C37.1636 209.752 37.0111 210.238 36.9772 210.74C36.816 216.593 36.3448 236.718 37.2748 247.742C37.3471 248.244 37.5261 248.726 37.7999 249.154C38.0736 249.581 38.4358 249.946 38.862 250.222C42.582 252.317 52.6756 257.848 57.3008 259.125C58.3624 259.308 59.454 259.187 60.4504 258.778L65.1128 256.918C65.5467 256.712 65.9166 256.392 66.183 255.992C66.4494 255.593 66.6024 255.128 66.6256 254.648C66.6256 242.955 68.6964 230.084 70.6308 217.337C70.6814 216.867 70.5904 216.393 70.3695 215.975C70.1485 215.558 69.8077 215.216 69.3908 214.993L47.976 204.565C47.5034 204.364 46.9933 204.267 46.4799 204.28C45.9666 204.293 45.462 204.415 45 204.639Z" fill="#455A64"/>
<path d="M37.3244 247.704C36.3944 236.681 36.8656 216.568 37.0268 210.703C37.0005 210.515 37.03 210.324 37.1116 210.152C37.1933 209.981 37.3235 209.838 37.486 209.74C37.6486 209.642 37.8363 209.594 38.0259 209.602C38.2154 209.61 38.3984 209.674 38.552 209.785L58.5284 219.705C58.9525 219.937 59.3036 220.283 59.5423 220.704C59.7811 221.124 59.898 221.603 59.88 222.086C58.8811 233.921 58.5541 245.802 58.9004 257.674C58.9273 257.872 58.9058 258.074 58.8378 258.262C58.7698 258.45 58.6573 258.619 58.5099 258.754C58.3625 258.89 58.1846 258.987 57.9913 259.039C57.798 259.09 57.5952 259.094 57.4 259.05C52.7748 257.81 42.706 252.243 38.9612 250.147C38.5301 249.88 38.161 249.524 37.8787 249.103C37.5964 248.682 37.4074 248.205 37.3244 247.704Z" fill="#37474F"/>
<path d="M57.5984 259.088C58.5825 259.206 59.5807 259.074 60.5 258.703L65.1624 256.831C65.589 256.62 65.9524 256.3 66.2158 255.904C66.4793 255.508 66.6335 255.049 66.6628 254.574C67.5804 242.558 68.7336 230.01 70.6804 217.262C70.7345 216.835 70.652 216.401 70.4448 216.022L59.632 220.982C59.8116 221.344 59.8929 221.746 59.8676 222.148C58.8557 233.986 58.5286 245.873 58.888 257.748C58.9022 257.924 58.879 258.1 58.8199 258.266C58.7608 258.431 58.6672 258.582 58.5452 258.709C58.4233 258.836 58.2758 258.935 58.1126 259C57.9493 259.065 57.774 259.095 57.5984 259.088Z" fill="#263238"/>
<path d="M40.908 214.857L55.5772 221.95L54.8084 233.903L40.4988 227.604C40.4988 227.604 40.598 219.916 40.908 214.857Z" fill="#263238"/>
<path d="M54.92 232.986L41.28 227.021C41.28 227.021 41.3668 220.238 41.6396 215.229L55.54 221.95L54.92 232.986Z" fill="#3BB738"/>
<path opacity="0.4" d="M54.92 232.986L41.28 227.021C41.28 227.021 41.3668 220.238 41.6396 215.229L55.54 221.95L54.92 232.986Z" fill="black"/>
<path d="M61.74 214.1L58.0944 215.849L44.9504 209.413L48.4968 207.628L61.74 214.1Z" fill="#263238"/>
<path d="M61.1944 214.361L58.0944 215.849L45.5084 209.674L48.5092 208.161L61.1944 214.361Z" fill="#3BB738"/>
<path opacity="0.4" d="M61.1944 214.361L58.0944 215.849L45.5084 209.674L48.5092 208.161L61.1944 214.361Z" fill="black"/>
<path opacity="0.4" d="M59.322 213.443L56.1972 214.906L55.8004 214.72L58.9128 213.245L59.322 213.443Z" fill="black"/>
<path opacity="0.4" d="M56.5196 212.067L53.432 213.555L52.9732 213.332L56.098 211.868L56.5196 212.067Z" fill="black"/>
<path opacity="0.4" d="M53.7296 210.715L50.6172 212.178L50.2204 211.992L53.3204 210.517L53.7296 210.715Z" fill="black"/>
<path opacity="0.4" d="M51.1876 209.475L48.0752 210.938L47.6784 210.74L50.7784 209.264L51.1876 209.475Z" fill="black"/>
<path d="M55.4408 237.983L55.3292 239.446C55.3318 239.543 55.3089 239.64 55.2627 239.726C55.2165 239.811 55.1486 239.884 55.0658 239.935C54.9831 239.986 54.8883 240.015 54.7909 240.019C54.6935 240.022 54.5969 240 54.5108 239.954L51.8572 238.876C51.6423 238.773 51.4615 238.611 51.3361 238.409C51.2108 238.207 51.1463 237.973 51.1504 237.735L51.2372 236.222C51.2343 236.126 51.2567 236.031 51.3022 235.947C51.3478 235.862 51.4148 235.791 51.4966 235.741C51.5784 235.69 51.6719 235.663 51.7679 235.66C51.8639 235.657 51.9588 235.68 52.0432 235.726L54.734 236.842C54.9488 236.944 55.1297 237.106 55.2551 237.309C55.3804 237.511 55.4449 237.745 55.4408 237.983Z" fill="#263238"/>
<path d="M55.4656 242.782L55.3788 244.257C55.3825 244.354 55.3609 244.45 55.3162 244.536C55.2716 244.622 55.2053 244.695 55.124 244.747C55.0427 244.8 54.9492 244.83 54.8525 244.836C54.7559 244.841 54.6595 244.821 54.5728 244.778L51.9068 243.724C51.6911 243.627 51.5077 243.471 51.3781 243.273C51.2485 243.075 51.1781 242.844 51.1752 242.608L51.2 241.12C51.1937 241.024 51.2131 240.928 51.2562 240.841C51.2992 240.755 51.3644 240.681 51.4451 240.628C51.5258 240.576 51.619 240.545 51.7154 240.54C51.8118 240.535 51.9078 240.555 51.9936 240.599L54.7092 241.678C54.9276 241.77 55.1149 241.923 55.249 242.119C55.3831 242.315 55.4582 242.545 55.4656 242.782Z" fill="#263238"/>
<path d="M55.4904 247.58V249.056C55.4963 249.154 55.4765 249.251 55.4327 249.339C55.389 249.427 55.323 249.501 55.2413 249.555C55.1596 249.609 55.0652 249.641 54.9674 249.647C54.8696 249.653 54.772 249.633 54.6844 249.589L51.944 248.56C51.726 248.465 51.54 248.309 51.4081 248.111C51.2762 247.913 51.2039 247.682 51.2 247.444V245.931C51.1937 245.835 51.2131 245.739 51.2562 245.652C51.2992 245.566 51.3644 245.493 51.4451 245.44C51.5258 245.387 51.6191 245.356 51.7154 245.351C51.8118 245.346 51.9078 245.366 51.9936 245.41L54.7092 246.44C54.938 246.531 55.1344 246.688 55.2736 246.891C55.4127 247.094 55.4882 247.334 55.4904 247.58Z" fill="#263238"/>
<path d="M55.5152 252.379V253.855C55.5223 253.952 55.5038 254.049 55.4616 254.137C55.4194 254.225 55.355 254.3 55.2748 254.355C55.1945 254.41 55.1013 254.444 55.0042 254.452C54.9072 254.459 54.8097 254.442 54.7216 254.401L52.0184 253.433C51.7995 253.344 51.6109 253.193 51.4746 253C51.3384 252.807 51.2603 252.578 51.2496 252.342V250.829C51.2398 250.733 51.256 250.635 51.2965 250.547C51.3371 250.459 51.4004 250.383 51.48 250.327C51.5597 250.272 51.6527 250.238 51.7495 250.231C51.8463 250.223 51.9434 250.241 52.0308 250.284L54.7712 251.276C54.9873 251.37 55.172 251.524 55.3038 251.719C55.4356 251.915 55.5089 252.144 55.5152 252.379Z" fill="#263238"/>
<path d="M49.5012 235.267L49.4144 236.805C49.4224 236.901 49.404 236.998 49.361 237.085C49.3181 237.172 49.2523 237.246 49.1706 237.298C49.089 237.35 48.9947 237.379 48.8978 237.382C48.801 237.385 48.7052 237.361 48.6208 237.313L45.9796 236.222C45.7601 236.123 45.5741 235.963 45.4442 235.76C45.3143 235.558 45.2461 235.322 45.248 235.081L45.3224 233.506C45.3139 233.411 45.3318 233.316 45.3741 233.23C45.4163 233.144 45.4813 233.072 45.562 233.021C45.6427 232.969 45.7358 232.941 45.8314 232.94C45.9269 232.938 46.0211 232.962 46.1036 233.01L48.782 234.126C48.9992 234.227 49.1826 234.388 49.3102 234.591C49.4379 234.793 49.5042 235.028 49.5012 235.267Z" fill="#263238"/>
<path d="M49.4764 240.041L49.402 241.566C49.4083 241.663 49.3889 241.759 49.3458 241.845C49.3028 241.932 49.2376 242.005 49.1569 242.058C49.0762 242.111 48.9829 242.142 48.8866 242.147C48.7902 242.152 48.6942 242.131 48.6084 242.087L45.9672 241.008C45.7477 240.91 45.5617 240.749 45.4318 240.547C45.3019 240.344 45.2337 240.108 45.2356 239.868V238.293C45.23 238.197 45.2502 238.102 45.2941 238.017C45.3381 237.932 45.4041 237.86 45.4853 237.81C45.5665 237.759 45.6598 237.731 45.7555 237.729C45.8512 237.726 45.9457 237.75 46.0292 237.797L48.7076 238.9C48.934 238.994 49.1279 239.151 49.2647 239.354C49.4015 239.558 49.4752 239.796 49.4764 240.041Z" fill="#263238"/>
<path d="M49.4516 244.84V246.378C49.4596 246.474 49.4412 246.571 49.3982 246.658C49.3553 246.745 49.2895 246.818 49.2079 246.871C49.1263 246.923 49.0319 246.952 48.935 246.955C48.8382 246.958 48.7424 246.934 48.658 246.886L46.0044 245.82C45.7868 245.722 45.6021 245.563 45.4723 245.363C45.3426 245.163 45.2733 244.93 45.2728 244.691V243.116C45.2662 243.022 45.2851 242.927 45.3274 242.842C45.3698 242.757 45.4342 242.684 45.5139 242.633C45.5936 242.581 45.6856 242.551 45.7806 242.547C45.8756 242.542 45.97 242.564 46.054 242.608L48.7448 243.712C48.9577 243.813 49.1373 243.973 49.2625 244.173C49.3877 244.373 49.4533 244.604 49.4516 244.84Z" fill="#263238"/>
<path d="M49.4392 249.564V251.102C49.4455 251.198 49.4261 251.295 49.383 251.381C49.34 251.467 49.2748 251.541 49.1941 251.594C49.1134 251.647 49.0202 251.677 48.9238 251.682C48.8274 251.687 48.7314 251.667 48.6456 251.623L45.992 250.569C45.7721 250.473 45.5848 250.315 45.4527 250.115C45.3207 249.915 45.2496 249.68 45.248 249.44V247.866C45.2414 247.771 45.2603 247.676 45.3026 247.591C45.345 247.506 45.4094 247.434 45.4891 247.382C45.5688 247.33 45.6608 247.3 45.7558 247.296C45.8508 247.292 45.9452 247.313 46.0292 247.357L48.72 248.436C48.9352 248.536 49.1174 248.695 49.2449 248.895C49.3723 249.095 49.4398 249.327 49.4392 249.564Z" fill="#263238"/>
<path d="M43.5492 232.564V234.164C43.5577 234.259 43.5398 234.355 43.4975 234.44C43.4553 234.526 43.3903 234.598 43.3096 234.65C43.229 234.701 43.1358 234.729 43.0402 234.731C42.9447 234.732 42.8505 234.708 42.768 234.66L40.1516 233.568C39.9298 233.472 39.7412 233.312 39.609 233.109C39.4768 232.907 39.4068 232.67 39.4076 232.428V230.791C39.4006 230.697 39.419 230.604 39.4607 230.52C39.5024 230.436 39.5659 230.365 39.6446 230.314C39.7233 230.264 39.8142 230.235 39.9078 230.232C40.0014 230.228 40.0942 230.25 40.1764 230.295L42.8424 231.411C43.0592 231.514 43.2414 231.678 43.3669 231.883C43.4924 232.087 43.5557 232.324 43.5492 232.564Z" fill="#263238"/>
<path d="M43.574 237.202V238.801C43.5825 238.896 43.5646 238.992 43.5223 239.078C43.4801 239.163 43.4151 239.236 43.3344 239.287C43.2538 239.338 43.1606 239.366 43.065 239.368C42.9695 239.37 42.8753 239.345 42.7928 239.297L40.1764 238.206C39.9546 238.109 39.766 237.95 39.6338 237.747C39.5016 237.544 39.4316 237.307 39.4324 237.065V235.428C39.4239 235.333 39.4418 235.238 39.4841 235.152C39.5263 235.066 39.5913 234.994 39.672 234.943C39.7527 234.891 39.8459 234.863 39.9414 234.862C40.0369 234.86 40.1311 234.884 40.2136 234.932L42.8672 236.048C43.0785 236.159 43.2558 236.324 43.3803 236.527C43.5048 236.73 43.5718 236.963 43.574 237.202Z" fill="#263238"/>
<path d="M43.5864 241.827V243.427C43.5944 243.523 43.576 243.62 43.533 243.707C43.4901 243.794 43.4243 243.867 43.3426 243.92C43.261 243.972 43.1667 244.001 43.0698 244.004C42.973 244.006 42.8772 243.983 42.7928 243.935L40.1764 242.844C39.9569 242.745 39.7709 242.585 39.641 242.382C39.5111 242.18 39.4429 241.944 39.4448 241.703V240.066C39.4332 239.971 39.4486 239.875 39.4891 239.789C39.5296 239.702 39.5936 239.629 39.6738 239.577C39.754 239.526 39.8472 239.497 39.9427 239.496C40.0381 239.495 40.132 239.52 40.2136 239.57L42.8672 240.686C43.0798 240.792 43.2592 240.955 43.386 241.156C43.5128 241.357 43.5821 241.589 43.5864 241.827Z" fill="#263238"/>
<path d="M43.5988 246.464V248.064C43.6098 248.16 43.5938 248.258 43.5526 248.345C43.5114 248.433 43.4466 248.507 43.3655 248.56C43.2843 248.613 43.1901 248.642 43.0933 248.644C42.9965 248.646 42.9011 248.622 42.8176 248.572L40.2012 247.481C39.9794 247.384 39.7907 247.225 39.6585 247.022C39.5263 246.819 39.4563 246.583 39.4572 246.34V244.704C39.4487 244.609 39.4666 244.513 39.5089 244.427C39.5511 244.341 39.6161 244.269 39.6968 244.218C39.7774 244.167 39.8706 244.139 39.9662 244.137C40.0617 244.135 40.1559 244.16 40.2384 244.208L42.892 245.324C43.1068 245.426 43.2877 245.588 43.4131 245.79C43.5384 245.992 43.6029 246.227 43.5988 246.464Z" fill="#263238"/>
<path d="M309.12 87.4593L293.781 96.3501L299.87 109.99C299.991 110.261 300.195 110.486 300.452 110.635L305.722 113.685C305.907 113.791 306.113 113.855 306.326 113.87C306.538 113.885 306.751 113.852 306.949 113.773C307.147 113.695 307.325 113.572 307.469 113.415C307.613 113.258 307.719 113.071 307.781 112.867L314.39 90.4601L309.12 87.4593Z" fill="#3BB738"/>
<path opacity="0.15" d="M309.12 87.4593L293.781 96.3501L299.87 109.99C299.991 110.261 300.195 110.486 300.452 110.635L305.722 113.685C305.907 113.791 306.113 113.855 306.326 113.87C306.538 113.885 306.751 113.852 306.949 113.773C307.147 113.695 307.325 113.572 307.469 113.415C307.613 113.258 307.719 113.071 307.781 112.867L314.39 90.4601L309.12 87.4593Z" fill="black"/>
<path d="M299.101 99.3881L305.189 113.028C305.305 113.292 305.499 113.513 305.745 113.662C305.991 113.812 306.277 113.882 306.564 113.863C306.852 113.844 307.126 113.737 307.35 113.556C307.575 113.376 307.738 113.131 307.818 112.854L314.427 90.4477L299.101 99.3881Z" fill="#3BB738"/>
<path d="M328.464 1.20489L270.68 34.5981C270.294 34.8491 269.973 35.1877 269.742 35.5863C269.511 35.9849 269.378 36.4323 269.353 36.8921V108.663C269.383 109.117 269.519 109.557 269.749 109.949C269.979 110.341 270.298 110.673 270.68 110.92L275.442 113.586C275.855 113.794 276.312 113.903 276.775 113.903C277.238 113.903 277.694 113.794 278.108 113.586L335.929 80.1929C336.316 79.9434 336.639 79.6051 336.869 79.2062C337.1 78.8073 337.232 78.3592 337.256 77.8989V6.14009C337.23 5.68221 337.096 5.23693 336.865 4.84046C336.635 4.444 336.314 4.10756 335.929 3.85849L331.167 1.19249C330.748 0.981022 330.284 0.8719 329.814 0.874055C329.344 0.87621 328.882 0.989582 328.464 1.20489Z" fill="#3BB738"/>
<path opacity="0.5" d="M337.194 5.90447C337.094 5.23487 336.549 4.99927 335.879 5.38367L278.12 38.7645C277.726 39.0084 277.401 39.3501 277.178 39.7565L269.738 35.5405C269.96 35.1549 270.276 34.831 270.655 34.5981L328.464 1.20487C328.875 0.996748 329.33 0.888306 329.791 0.888306C330.252 0.888306 330.706 0.996748 331.118 1.20487L335.879 3.87087C336.232 4.09518 336.532 4.39302 336.759 4.744C336.986 5.09499 337.134 5.49084 337.194 5.90447Z" fill="white"/>
<path d="M276.731 112.83V41.0709C276.759 40.6028 276.9 40.1485 277.142 39.7469C277.384 39.3452 277.719 39.0081 278.12 38.7645L335.941 5.38368C336.685 4.96208 337.268 5.29688 337.268 6.14008V77.9113C337.245 78.3715 337.113 78.8197 336.882 79.2186C336.651 79.6175 336.329 79.9557 335.941 80.2053L278.12 113.598C277.314 114.02 276.731 113.673 276.731 112.83Z" fill="#3BB738"/>
<path opacity="0.15" d="M278.12 113.598C277.705 113.8 277.249 113.905 276.787 113.905C276.325 113.905 275.869 113.8 275.454 113.598L270.68 110.92C270.294 110.672 269.972 110.336 269.741 109.94C269.51 109.543 269.377 109.097 269.353 108.638V36.8921C269.369 36.4117 269.514 35.9445 269.775 35.5405L277.215 39.7565C276.968 40.1515 276.831 40.6052 276.818 41.0709V112.83C276.731 113.598 277.277 114.045 278.12 113.598Z" fill="black"/>
<path d="M282.919 61.0473C282.831 61.0489 282.745 61.0331 282.663 61.0008C282.582 60.9685 282.508 60.9204 282.446 60.8592C282.384 60.798 282.334 60.725 282.3 60.6445C282.267 60.5639 282.249 60.4774 282.249 60.3901V47.8909C282.248 47.7744 282.279 47.6599 282.338 47.5595C282.397 47.459 282.482 47.3764 282.584 47.3205L293.409 41.1205C293.508 41.0602 293.622 41.0284 293.738 41.0284C293.854 41.0284 293.967 41.0602 294.066 41.1205C294.168 41.1764 294.254 41.259 294.312 41.3595C294.371 41.4599 294.402 41.5744 294.401 41.6909V54.1405C294.402 54.2554 294.373 54.3686 294.316 54.4687C294.26 54.5688 294.178 54.6523 294.079 54.7109L283.254 60.9109C283.157 60.9862 283.041 61.0333 282.919 61.0473ZM283.588 48.2753V59.2369L293.074 53.7561V42.7945L283.588 48.2753Z" fill="#FAFAFA"/>
<path d="M295.009 38.5165C294.688 38.3801 294.326 38.3767 294.003 38.5069C293.68 38.6371 293.422 38.8903 293.285 39.2109L288.325 51.0157L287.085 49.8625C286.961 49.742 286.815 49.6471 286.655 49.5831C286.494 49.5191 286.323 49.4874 286.15 49.4897C285.977 49.492 285.807 49.5283 285.648 49.5965C285.489 49.6647 285.346 49.7635 285.225 49.8873C285.105 50.0111 285.01 50.1573 284.946 50.3178C284.882 50.4782 284.85 50.6497 284.852 50.8224C284.855 50.9952 284.891 51.1657 284.959 51.3244C285.027 51.4831 285.126 51.6268 285.25 51.7473L287.817 54.2273C288.063 54.4651 288.392 54.5984 288.734 54.5993H288.995C289.203 54.5553 289.398 54.4612 289.563 54.3251C289.727 54.189 289.855 54.015 289.937 53.8181L295.703 40.2401C295.782 40.083 295.826 39.9109 295.833 39.7354C295.84 39.5598 295.81 39.3848 295.744 39.2218C295.679 39.0588 295.579 38.9117 295.452 38.7901C295.326 38.6685 295.174 38.5752 295.009 38.5165Z" fill="#455A64"/>
<path d="M302.92 40.6989L330.522 24.7649C331.477 24.2069 332.258 24.6037 332.258 25.6453C332.217 26.2295 332.038 26.7957 331.736 27.2978C331.435 27.7998 331.019 28.2236 330.522 28.5345L302.92 44.4685C301.965 45.0141 301.196 44.6173 301.196 43.5757C301.238 42.9947 301.416 42.4317 301.716 41.932C302.015 41.4324 302.428 41.01 302.92 40.6989Z" fill="#455A64"/>
<path d="M282.919 79.7961C282.801 79.7995 282.685 79.7694 282.584 79.7093C282.483 79.6493 282.398 79.5641 282.34 79.462C282.281 79.3599 282.25 79.2443 282.249 79.1265V66.6397C282.247 66.5214 282.278 66.4049 282.336 66.3023C282.395 66.1997 282.481 66.1149 282.584 66.0569L293.409 59.8569C293.51 59.8016 293.623 59.7725 293.738 59.7725C293.853 59.7725 293.966 59.8016 294.066 59.8569C294.168 59.9169 294.252 60.0021 294.311 60.1042C294.369 60.2063 294.4 60.3219 294.401 60.4397V72.8769C294.403 72.9952 294.373 73.1118 294.314 73.2143C294.255 73.3169 294.169 73.4017 294.066 73.4597L283.254 79.6597C283.157 79.735 283.041 79.7822 282.919 79.7961ZM283.576 67.0241V77.9733L293.074 72.4801V61.5433L283.576 67.0241Z" fill="#FAFAFA"/>
<path d="M295.009 57.2529C294.686 57.1207 294.325 57.1207 294.002 57.253C293.68 57.3852 293.422 57.6391 293.285 57.9597L288.325 69.7645L287.085 68.6113C286.963 68.4891 286.818 68.3921 286.659 68.326C286.499 68.2598 286.328 68.2258 286.155 68.2258C285.982 68.2258 285.811 68.2598 285.652 68.326C285.492 68.3921 285.347 68.4891 285.225 68.6113C284.984 68.861 284.85 69.1944 284.85 69.5413C284.85 69.8883 284.984 70.2217 285.225 70.4713L287.792 72.9513C287.911 73.073 288.054 73.1689 288.212 73.2329C288.37 73.2969 288.539 73.3277 288.71 73.3233C288.796 73.3355 288.884 73.3355 288.97 73.3233C289.18 73.2869 289.377 73.197 289.542 73.0624C289.707 72.9277 289.835 72.7528 289.912 72.5545L295.616 58.9145C295.74 58.6116 295.746 58.2735 295.634 57.9662C295.522 57.6589 295.299 57.4046 295.009 57.2529Z" fill="#455A64"/>
<path d="M302.92 59.3857L330.522 43.4517C331.477 42.8937 332.258 43.2905 332.258 44.3321C332.215 44.9141 332.035 45.4779 331.734 45.9776C331.432 46.4774 331.017 46.8992 330.522 47.2089L302.92 63.1553C301.965 63.7009 301.196 63.3041 301.196 62.2625C301.238 61.6815 301.416 61.1185 301.716 60.6188C302.015 60.1191 302.428 59.6967 302.92 59.3857Z" fill="#455A64"/>
<path d="M282.919 98.5201C282.8 98.5198 282.684 98.4853 282.584 98.4209C282.482 98.3649 282.397 98.2823 282.338 98.1819C282.279 98.0815 282.248 97.9669 282.249 97.8505V85.3761C282.248 85.2596 282.279 85.1451 282.338 85.0447C282.397 84.9443 282.482 84.8617 282.584 84.8057L293.409 78.6057C293.508 78.5455 293.622 78.5136 293.738 78.5136C293.854 78.5136 293.967 78.5455 294.066 78.6057C294.168 78.6617 294.254 78.7443 294.312 78.8447C294.371 78.9451 294.402 79.0596 294.401 79.1761V91.6257C294.402 91.7421 294.371 91.8567 294.312 91.9571C294.254 92.0575 294.168 92.1401 294.066 92.1961L283.254 98.3961C283.155 98.4659 283.039 98.5086 282.919 98.5201ZM283.576 85.7357V96.6973L293.074 91.2165V80.2797L283.576 85.7357Z" fill="#FAFAFA"/>
<path d="M295.009 76.0017C294.688 75.8653 294.326 75.8619 294.003 75.9921C293.68 76.1223 293.422 76.3755 293.285 76.6961L288.325 88.5009L287.085 87.3477C286.835 87.1043 286.499 86.9702 286.15 86.9749C285.801 86.9795 285.469 87.1225 285.225 87.3725C284.982 87.6224 284.848 87.9588 284.852 88.3076C284.857 88.6564 285 88.9891 285.25 89.2325L287.817 91.7125C288.063 91.9502 288.392 92.0835 288.734 92.0845H288.995C289.203 92.0405 289.398 91.9464 289.563 91.8103C289.727 91.6742 289.855 91.5002 289.937 91.3033L295.641 77.6633C295.711 77.513 295.75 77.3503 295.756 77.1846C295.762 77.019 295.735 76.8538 295.676 76.6989C295.617 76.544 295.528 76.4025 295.413 76.2827C295.298 76.163 295.161 76.0674 295.009 76.0017Z" fill="#455A64"/>
<path d="M302.92 78.0725L330.522 62.1261C331.477 61.5805 332.258 61.9773 332.258 63.0189C332.215 63.601 332.035 64.1647 331.734 64.6644C331.432 65.1642 331.017 65.586 330.522 65.8957L302.92 81.8297C301.965 82.3877 301.196 81.9909 301.196 80.9493C301.238 80.3683 301.416 79.8053 301.716 79.3056C302.015 78.806 302.428 78.3836 302.92 78.0725Z" fill="#455A64"/>
</svg>
